<?xml version="1.0" encoding="UTF-8"?>
<svg version="1.1" xmlns="http://www.w3.org/2000/svg" width="408" height="435">
<path d="M0 0 C134.64 0 269.28 0 408 0 C408 143.55 408 287.1 408 435 C273.36 435 138.72 435 0 435 C0 291.45 0 147.9 0 0 Z " fill="#4B939A" transform="translate(0,0)"/>
<path d="M0 0 C134.64 0 269.28 0 408 0 C408 143.55 408 287.1 408 435 C273.36 435 138.72 435 0 435 C0 291.45 0 147.9 0 0 Z M113.625 14.3125 C110.6917014 19.16372461 109.03211997 24.07280202 108.9375 29.75 C108 33 108 33 105.9296875 34.296875 C104.15053615 35.11475353 102.36505976 35.91898213 100.57421875 36.7109375 C94.79479127 39.60503624 92.06322228 44.30035788 89.625 50.125 C86.08407724 61.01556915 87.57120724 71.59298261 92 82 C94.65102955 86.8591957 97.60168296 91.34264222 101.171875 95.57421875 C103.50098821 98.66477282 103.70159072 101.19528174 104 105 C103.4225 105.226875 102.845 105.45375 102.25 105.6875 C96.72643971 108.90957684 93.70692295 115.01714883 92 121 C90.59910451 130.94873239 92.38079987 138.6743044 98 147 C98.70640625 147.58910156 99.4128125 148.17820313 100.140625 148.78515625 C102.96843539 152.15357745 102.75484611 155.53395067 103 159.8125 C104.41705272 177.10252281 109.21148794 193.19257676 120 207 C120.52207031 207.69867188 121.04414062 208.39734375 121.58203125 209.1171875 C128.65852658 217.9671111 138.98409032 224.35478946 150 227 C152.71124341 227.12601448 152.71124341 227.12601448 155 227 C154.67 227.66 154.34 228.32 154 229 C153.79670732 230.82963411 153.63527804 232.66408368 153.5 234.5 C153.11111111 239.77777778 153.11111111 239.77777778 152 242 C150.00482828 242.71237357 147.97229585 243.32072938 145.9296875 243.8828125 C144.63954971 244.24456704 143.34943004 244.60638622 142.05932617 244.96826172 C141.0362587 245.25053619 141.0362587 245.25053619 139.99252319 245.53851318 C107.31760269 254.58843064 70.61183359 264.78140332 45 288 C43.94425781 288.89912109 43.94425781 288.89912109 42.8671875 289.81640625 C17.70431051 312.66035144 12.71049403 356.91674557 7.125 388.625 C6.98561005 389.40880035 6.84622009 390.19260071 6.7026062 391.00015259 C4.18921552 405.29096069 2.66718406 419.55107147 1 434 C134.65 434 268.3 434 406 434 C406 427.99894377 405.8653234 422.28711185 405.265625 416.35546875 C405.18786835 415.55623993 405.11011169 414.75701111 405.02999878 413.93356323 C404.77607964 411.3508919 404.51419112 408.76913982 404.25 406.1875 C404.15974548 405.2997287 404.06949097 404.4119574 403.97650146 403.49728394 C398.31139117 342.43552019 398.31139117 342.43552019 369 290 C368.44957031 289.36835938 367.89914062 288.73671875 367.33203125 288.0859375 C339.95447052 258.47761256 287.56663855 246.65393981 250 238 C249.34 238 248.68 238 248 238 C246.22125344 227.98862986 245.71261545 218.36065151 245.79418945 208.22216797 C245.81253387 205.87065792 245.81469752 203.51954332 245.81445312 201.16796875 C245.8347162 192.73254883 246.10769621 184.39730773 247 176 C248.25852783 175.74754517 248.25852783 175.74754517 249.54248047 175.48999023 C259.30443132 173.46007822 265.91505531 169.62012603 271.6796875 161.3984375 C276.07693495 153.41053828 278.72731514 143.84712692 276.45703125 134.84765625 C274.99842335 130.52018419 272.94118161 127.52455647 270 124 C270.45890625 123.16339844 270.9178125 122.32679687 271.390625 121.46484375 C280.38258233 104.40657177 285.74154371 84.0537955 280 65 C275.94633621 55.03017825 271.45741161 46.6155749 261.5 41.6875 C256.73485347 39.23639248 254.60061979 35.98141931 251.73046875 31.5546875 C242.86042426 18.45985885 228.43916113 11.50772769 213.35498047 8.20092773 C203.87171308 6.44208198 194.39071636 4.95001647 184.8125 3.8125 C184.08986969 3.72661621 183.36723938 3.64073242 182.62271118 3.55224609 C172.14121784 2.3351236 161.74253147 1.5852162 151.1875 1.5 C150.04579346 1.48171143 148.90408691 1.46342285 147.7277832 1.44458008 C134.75384718 1.53932225 123.02196079 5.16282765 113.625 14.3125 Z " fill="#F7F8F9" transform="translate(0,0)"/>
<path d="M0 0 C7.20356668 5.0218589 14.21960917 10.51233849 18.48828125 18.30859375 C20.46913136 21.74340118 22.46503478 23.20899182 25.92578125 25.12109375 C35.28808732 30.3037989 40.68228073 38.16840599 44.11328125 48.18359375 C49.70191347 68.57771236 43.9158172 90.02479765 34.11328125 108.18359375 C34.89703125 109.04984375 35.68078125 109.91609375 36.48828125 110.80859375 C40.43316453 115.60280034 41.59144172 120.42915623 41.42578125 126.55859375 C40.11227091 137.59208059 35.91475967 146.3283424 27.48828125 153.49609375 C22.54474009 157.02582061 16.97259705 158.00824223 11.11328125 159.18359375 C10.13766922 168.36490003 9.92702011 177.47893094 9.92797852 186.70068359 C9.92579109 189.048036 9.90755795 191.39491756 9.88867188 193.7421875 C9.85515932 203.08666597 10.47430406 211.95889155 12.11328125 221.18359375 C13.14018066 221.40813232 14.16708008 221.6326709 15.22509766 221.86401367 C44.1381244 228.2673011 73.44942039 237.19000416 100.11328125 250.18359375 C100.77360352 250.50150879 101.43392578 250.81942383 102.11425781 251.14697266 C126.98631583 263.26334101 144.5071716 282.34706902 153.91088867 308.5065918 C163.15524905 335.66649722 166.24718599 364.49658263 168.86328125 392.93359375 C168.92839905 393.63523651 168.99351685 394.33687927 169.06060791 395.05978394 C169.73819048 402.45645479 170.27691037 409.75483178 170.11328125 417.18359375 C169.12328125 417.18359375 168.13328125 417.18359375 167.11328125 417.18359375 C166.80814717 414.45864502 166.50360787 411.73363152 166.19970703 409.00854492 C165.92945885 406.58673089 165.65827145 404.16502151 165.38623047 401.7434082 C164.69626575 395.56897656 164.02674314 389.39432752 163.421875 383.2109375 C161.23514863 361.10859282 158.79738487 338.44619499 152.11328125 317.18359375 C151.83097656 316.19746094 151.54867188 315.21132813 151.2578125 314.1953125 C147.09997989 300.48717443 140.33868149 288.11618549 131.11328125 277.18359375 C130.51257813 276.46945312 129.911875 275.7553125 129.29296875 275.01953125 C101.78973824 245.13506866 51.56450384 236.11186811 14.11328125 225.18359375 C13.97156494 226.11389404 13.82984863 227.04419434 13.68383789 228.00268555 C11.58813839 239.68641201 3.47338703 249.22006625 -5.88671875 255.99609375 C-21.72535697 266.41878425 -42.14155152 270.05700365 -60.88671875 266.49609375 C-69.69046768 263.99306709 -76.81484669 259.94637571 -81.88671875 252.18359375 C-85.59356353 245.20678232 -85.2087605 237.90066836 -84.88671875 230.18359375 C-87.52671875 230.84359375 -90.16671875 231.50359375 -92.88671875 232.18359375 C-93.47155177 245.3358386 -93.74074867 256.537946 -85.57421875 267.62109375 C-74.70251513 277.98713673 -61.78876829 279.5370952 -47.32421875 279.62109375 C-46.20104248 279.63116455 -45.07786621 279.64123535 -43.9206543 279.65161133 C-25.35128332 279.46081622 -5.7226131 272.88800195 7.92578125 259.93359375 C11.84499657 255.80810394 14.77519381 251.29331105 17.60546875 246.37109375 C19.11328125 244.18359375 19.11328125 244.18359375 22.11328125 243.18359375 C20.77943786 248.01152688 18.67328817 251.65351998 15.61328125 255.55859375 C15.16823242 256.12658691 14.72318359 256.69458008 14.26464844 257.27978516 C1.99745616 272.47329497 -17.72594916 280.81269044 -36.88671875 283.18359375 C-54.1328736 284.1837751 -72.10281392 283.39484579 -85.88671875 271.62109375 C-86.54671875 270.81671875 -87.20671875 270.01234375 -87.88671875 269.18359375 C-88.56734375 268.46171875 -89.24796875 267.73984375 -89.94921875 266.99609375 C-95.5778507 258.82549899 -97.07219361 250.07090532 -96.94921875 240.30859375 C-96.94470703 239.62023437 -96.94019531 238.931875 -96.93554688 238.22265625 C-96.92388211 236.5429304 -96.90595146 234.86325 -96.88671875 233.18359375 C-145.06323835 247.05835638 -145.06323835 247.05835638 -186.88671875 273.18359375 C-187.64984375 273.84488281 -188.41296875 274.50617188 -189.19921875 275.1875 C-223.41918308 306.57506863 -225.30254442 373.86224134 -230.88671875 417.18359375 C-232.20671875 417.18359375 -233.52671875 417.18359375 -234.88671875 417.18359375 C-223.76287833 298.57337254 -223.76287833 298.57337254 -187.88671875 268.18359375 C-166.58043159 251.52446872 -140.6029929 242.46865831 -115.13671875 234.24609375 C-114.43404877 234.01884613 -113.73137878 233.79159851 -113.00741577 233.5574646 C-104.30193478 230.75708314 -95.57744572 228.25262602 -86.69433594 226.07592773 C-85.76782227 225.78145752 -84.84130859 225.4869873 -83.88671875 225.18359375 C-82.61465479 222.63946583 -82.59554268 220.51763283 -82.38671875 217.68359375 C-81.99782986 212.40581597 -81.99782986 212.40581597 -80.88671875 210.18359375 C-82.02109375 210.10109375 -83.15546875 210.01859375 -84.32421875 209.93359375 C-96.49770474 208.35317627 -108.01844537 200.21049938 -115.7578125 191.03125 C-126.84456344 176.2014492 -132.46382593 158.91711848 -133.13671875 140.43359375 C-133.48846292 135.01033824 -134.51551857 132.59624622 -138.3203125 128.828125 C-143.02445257 123.88936448 -144.18985639 118.01316242 -144.51171875 111.37109375 C-144.2773056 103.04942709 -141.34269025 96.0683136 -135.80859375 89.84765625 C-133.88671875 88.18359375 -133.88671875 88.18359375 -131.88671875 88.18359375 C-132.30285259 82.59352913 -133.52523502 79.80388091 -137.13671875 75.55859375 C-145.68345261 64.75269138 -148.96361155 52.78321146 -147.88671875 39.18359375 C-146.26460135 31.63977068 -142.97356725 25.07438836 -136.88671875 20.18359375 C-135.30276599 19.547416 -133.69691939 18.96318898 -132.07421875 18.43359375 C-129.72833743 17.66622315 -129.72833743 17.66622315 -127.88671875 16.18359375 C-126.92657829 13.18259658 -126.62883472 10.3545612 -126.31640625 7.22265625 C-125.43597058 0.9955749 -122.0174285 -3.14879289 -117.26171875 -7.06640625 C-91.55213582 -25.00446126 -25.32992579 -15.93831595 0 0 Z " fill="#17171A" transform="translate(235.88671875,16.81640625)"/>
<path d="M0 0 C0.99 0.33 1.98 0.66 3 1 C1.83414941 12.55800153 -1.59638603 23.11794659 -6.1875 33.75 C-7.22642964 36.2283347 -7.22642964 36.2283347 -7 40 C-5.43979133 40.65134925 -3.87671421 41.29582964 -2.3125 41.9375 C-1.44238281 42.29714844 -0.57226562 42.65679687 0.32421875 43.02734375 C2.88179265 43.9570312 5.3221323 44.54162625 8 45 C8 44.01 8 43.02 8 42 C6.96875 41.896875 5.9375 41.79375 4.875 41.6875 C1.02981522 41.0052898 -1.57756309 39.80817134 -5 38 C-4.7733667 37.37134033 -4.5467334 36.74268066 -4.31323242 36.0949707 C1.77490768 19.31530935 1.77490768 19.31530935 6 2 C8.31 2.33 10.62 2.66 13 3 C13.08636719 3.83402344 13.17273438 4.66804688 13.26171875 5.52734375 C14.41819832 14.78979018 16.36158491 21.92896231 23.375 28.375 C30.88957896 34.15544535 37.62132721 35.02312794 47 34 C53.62413627 32.16925803 59.73010529 28.61706799 63.44140625 22.703125 C65.49239843 18.84655851 67.15930439 15.38017044 67.5625 11 C67.706875 10.01 67.85125 9.02 68 8 C73.93968316 4.06156901 82.99539186 4.9762984 89.81738281 5.54150391 C92 6 92 6 94.6484375 8.01171875 C96.13151274 10.31591125 97.19115462 12.38680724 98 15 C99.32695791 13.00956313 100.63966665 11.00954842 101.9375 9 C105.78378378 3.40540541 105.78378378 3.40540541 110 2 C115.23503836 1.60490277 118.59928724 2.06619149 123 5 C127.60642161 10.9758983 128.6121933 15.66501726 128 23 C126.43255331 31.48812232 122.59611134 39.28676779 115.9375 44.9375 C110.94335015 48.21420466 104.79249159 48.36400519 99 49 C97.00597523 59.83530463 96.65821145 70.40967933 96.68432617 81.39624023 C96.68750692 84.1935861 96.66386322 86.98989174 96.63867188 89.78710938 C96.60672562 99.03868179 96.96725623 107.17085867 100 116 C101.72917656 123.2474413 98.13393425 128.37432937 94.375 134.5 C85.118707 147.75963972 71.76845583 154.20153971 56.3125 157.30859375 C43.35931622 159.58062397 28.11634599 158.78392907 17 151 C12.67821371 147.0523091 9.60575842 142.66738265 8 137 C7.96076193 133.28546238 8.51382779 129.67745647 9 126 C9.16795001 124.37943569 9.33026996 122.7582823 9.48828125 121.13671875 C9.6588147 119.40364195 9.82938783 117.67056905 10 115.9375 C10.12411255 114.6685791 10.12411255 114.6685791 10.25073242 113.37402344 C10.88680111 107.22639778 10.88680111 107.22639778 12 105 C13.01835937 104.98582031 14.03671875 104.97164063 15.0859375 104.95703125 C35.2876633 104.39466541 54.36151711 98.70182034 69.4609375 84.76171875 C71.22345836 82.97296201 71.22345836 82.97296201 72 80 C68.55412892 81.93159556 65.90457705 83.95925999 63.125 86.75 C49.50665772 99.07459976 29.7876689 102.82684039 12 102 C-2.26819076 100.39660445 -14.77861231 92.88086032 -24 82 C-35.6000831 66.34832863 -39.22488035 49.08398034 -40 30 C-39.14019531 30.32226562 -38.28039062 30.64453125 -37.39453125 30.9765625 C-29.48966884 33.35984668 -21.40473538 32.91014319 -14 29.265625 C-7.00192604 24.83715632 -3.84225536 19.7121069 -1 12 C-0.30043372 7.98430787 -0.014444 4.07320676 0 0 Z " fill="#FDFDFD" transform="translate(146,123)"/>
<path d="M0 0 C7.20356668 5.0218589 14.21960917 10.51233849 18.48828125 18.30859375 C20.46913136 21.74340118 22.46503478 23.20899182 25.92578125 25.12109375 C35.28808732 30.3037989 40.68228073 38.16840599 44.11328125 48.18359375 C46.74441736 57.78517422 47.23481224 68.42455118 45.11328125 78.18359375 C44.45328125 78.84359375 43.79328125 79.50359375 43.11328125 80.18359375 C42.2859408 82.95150238 41.64771411 85.74154189 40.9921875 88.5546875 C40.07071864 91.31090326 39.19060096 92.25544327 37.11328125 94.18359375 C36.38457653 96.49830287 35.72088607 98.83418845 35.11328125 101.18359375 C34.00042122 104.24395883 32.93405984 106.45242587 31.11328125 109.18359375 C28.6875 109.37109375 28.6875 109.37109375 25.80078125 109.18359375 C19.47786202 109.02696342 17.03173388 110.39898665 12.42578125 114.68359375 C10.02006946 117.15247013 10.02006946 117.15247013 8.11328125 120.18359375 C5.93953661 117.53729593 4.78378734 115.5361242 4.11328125 112.18359375 C3.78328125 111.52359375 3.45328125 110.86359375 3.11328125 110.18359375 C2.45328125 110.18359375 1.79328125 110.18359375 1.11328125 110.18359375 C0.96890625 109.56484375 0.82453125 108.94609375 0.67578125 108.30859375 C0.181759 106.15101053 0.181759 106.15101053 -0.88671875 104.18359375 C-1.87671875 104.18359375 -2.86671875 104.18359375 -3.88671875 104.18359375 C-9.50932383 91.19155482 -13.09647736 79.10197405 -13.26171875 64.80859375 C-13.2757373 63.97626221 -13.28975586 63.14393066 -13.30419922 62.28637695 C-13.25992721 56.61672136 -12.14664416 52.38500937 -9.88671875 47.18359375 C-12.20003982 47.57498095 -14.51229644 47.97156981 -16.82421875 48.37109375 C-17.57566162 48.49911377 -18.32710449 48.62713379 -19.10131836 48.7590332 C-23.6775178 49.55730894 -28.20904398 50.46287541 -32.73828125 51.49609375 C-60.05940157 57.63024933 -84.34144483 57.36336646 -108.88671875 43.18359375 C-110.24381812 42.21609229 -111.59070266 41.231506 -112.88671875 40.18359375 C-122.50535102 48.02099782 -125.67923387 64.0484949 -127.421875 75.7890625 C-127.6487428 78.25904571 -127.82665294 80.70451396 -127.88671875 83.18359375 C-131.00627951 82.14374016 -131.73599703 81.50637321 -133.88671875 79.18359375 C-134.51707031 78.5803125 -135.14742187 77.97703125 -135.796875 77.35546875 C-143.91906233 68.91446659 -147.97524098 57.12111919 -148.38671875 45.55859375 C-148.0395898 36.27569373 -145.23015891 28.63990141 -138.89453125 21.796875 C-136.67425916 20.01288206 -134.76809051 19.31278341 -132.07421875 18.43359375 C-129.72833743 17.66622315 -129.72833743 17.66622315 -127.88671875 16.18359375 C-126.92657829 13.18259658 -126.62883472 10.3545612 -126.31640625 7.22265625 C-125.43597058 0.9955749 -122.0174285 -3.14879289 -117.26171875 -7.06640625 C-91.55213582 -25.00446126 -25.32992579 -15.93831595 0 0 Z " fill="#20282F" transform="translate(235.88671875,16.81640625)"/>
<path d="M0 0 C0.65484375 0.44730469 1.3096875 0.89460938 1.984375 1.35546875 C23.2159226 15.41986963 46.41883343 18.02025584 71.15893555 13.30273438 C76.98304175 12.09879374 82.77204322 10.76441072 88.55883789 9.39404297 C89.73627563 9.12164795 89.73627563 9.12164795 90.9375 8.84375 C91.61554688 8.68326172 92.29359375 8.52277344 92.9921875 8.35742188 C96.35126305 7.75945415 99.5973988 7.87626905 103 8 C102.67773438 9.12535156 102.35546875 10.25070313 102.0234375 11.41015625 C97.69626825 28.84520193 101.78296145 47.6493491 109.73046875 63.36328125 C111 66 111 66 112 70 C101.605 70.495 101.605 70.495 91 71 C90.01 67.7 89.02 64.4 88 61 C83.84764032 54.54077383 80.09008995 50.60395684 72.8125 47.75 C63.60629127 45.93894254 56.99939069 46.58258853 48.671875 51.15625 C42.89827885 55.14036898 39.83978398 60.68936894 37 67 C35.24970238 66.68917128 33.49977306 66.37626821 31.75 66.0625 C30.77546875 65.88847656 29.8009375 65.71445313 28.796875 65.53515625 C27.87390625 65.35855469 26.9509375 65.18195313 26 65 C25.26265625 64.89042969 24.5253125 64.78085938 23.765625 64.66796875 C22 64 22 64 20.875 62.328125 C20.58625 61.64234375 20.2975 60.9565625 20 60.25 C16.56980552 52.87705324 12.34123343 49.36042375 5 46 C1.67324837 44.89788596 -1.44544088 44.86619279 -4.9375 44.875 C-6.46697266 44.87113281 -6.46697266 44.87113281 -8.02734375 44.8671875 C-10.79588725 44.99088064 -13.30539535 45.37473262 -16 46 C-15.34699557 36.47514235 -14.21491151 27.46491343 -11.1875 18.375 C-10.83341064 17.29436279 -10.83341064 17.29436279 -10.47216797 16.19189453 C-8.28104217 9.97048205 -5.5981632 3.7321088 0 0 Z " fill="#FDFDFD" transform="translate(123,56)"/>
<path d="M0 0 C5.80636548 5.48198752 8.06723705 12.08099593 8.375 19.9375 C8.06322501 27.48573668 6.28496046 33.38774891 0.8828125 38.8125 C-5.10270523 43.65681007 -11.34187071 45.40428811 -18.98828125 45.18359375 C-25.98650397 44.4221291 -31.61339233 41.19781378 -36.25 35.9375 C-40.20705657 29.71412921 -42.14067201 23.35552549 -41.25 15.9375 C-39.01582927 7.33728859 -34.70284837 1.55682257 -27.0625 -2.9375 C-17.49488163 -6.76454735 -8.62838022 -5.47570283 0 0 Z " fill="#FCFCFC" transform="translate(203.25,110.0625)"/>
<path d="M0 0 C6.85410506 3.08799863 12.13859438 7.71996656 15.4765625 14.51953125 C17.66111336 21.37800488 17.29184987 28.98928137 14.31640625 35.53125 C10.83589657 41.56806623 6.36121383 45.85938751 -0.05859375 48.59375 C-8.28385415 49.87008351 -12.81313592 49.52930335 -20.68359375 46.15625 C-20.68359375 31.63625 -20.68359375 17.11625 -20.68359375 2.15625 C-13.19277418 -1.05410124 -7.85471309 -2.46960412 0 0 Z " fill="#FBFBFC" transform="translate(126.68359375,103.84375)"/>
<path d="M0 0 C1.485 0.99 1.485 0.99 3 2 C3.66 1.34 4.32 0.68 5 0 C5 2.31 5 4.62 5 7 C5.70769531 6.67773438 6.41539063 6.35546875 7.14453125 6.0234375 C14.69547135 3.3170814 22.65160764 4.53018137 29.8125 7.80078125 C35.25749998 10.78580802 38.92837086 14.53932597 42 20 C42.75 22.875 42.75 22.875 43 25 C44.7634375 25.2165625 44.7634375 25.2165625 46.5625 25.4375 C50.38212272 25.91410176 54.19110019 26.44453544 58 27 C58.27972656 26.34773438 58.55945313 25.69546875 58.84765625 25.0234375 C62.81414161 16.37624434 67.67021557 11.29943619 76.546875 7.69140625 C84.03641988 5.58049949 92.09665075 6.45332515 99 10 C105.43966467 14.19218676 109.5598984 19.70315771 112 27 C112.125 29.8046875 112.125 29.8046875 112 32 C112.99 31.67 113.98 31.34 115 31 C116.40824893 30.91978001 117.81997231 30.89234023 119.23046875 30.90234375 C120.43413086 30.90717773 120.43413086 30.90717773 121.66210938 30.91210938 C122.91217773 30.92467773 122.91217773 30.92467773 124.1875 30.9375 C125.03248047 30.94201172 125.87746094 30.94652344 126.74804688 30.95117188 C128.83206155 30.96294597 130.91603977 30.9808811 133 31 C132.01 28.525 132.01 28.525 131 26 C132.32 26 133.64 26 135 26 C136 29 136 29 135 32 C136.2065625 32.3403125 136.2065625 32.3403125 137.4375 32.6875 C138.283125 33.120625 139.12875 33.55375 140 34 C140.8125 36.625 140.8125 36.625 141 39 C141.66 39 142.32 39 143 39 C143.99 38.01 143.99 38.01 145 37 C144.67 38.98 144.34 40.96 144 43 C143.01 43 142.02 43 141 43 C139.61328125 41.5390625 139.61328125 41.5390625 138.3125 39.625 C137.87550781 38.99851563 137.43851563 38.37203125 136.98828125 37.7265625 C136 36 136 36 136 34 C132.72883268 34.13888506 129.458166 34.28730492 126.1875 34.4375 C125.25873047 34.47681641 124.32996094 34.51613281 123.37304688 34.55664062 C122.48037109 34.59853516 121.58769531 34.64042969 120.66796875 34.68359375 C119.43469849 34.73858032 119.43469849 34.73858032 118.17651367 34.79467773 C115.82094822 34.93427772 115.82094822 34.93427772 113 36 C112.92523438 36.61746094 112.85046875 37.23492187 112.7734375 37.87109375 C111.26583211 47.58184611 107.02939322 54.02850621 99.125 59.80859375 C92.40463109 63.57644764 85.51949876 63.84041457 78 63 C69.19043947 60.37665441 63.68470046 54.56399078 59.125 46.8125 C56.97248949 41.43122371 56.90292149 36.72763181 57 31 C54.69 30.67 52.38 30.34 50 30 C49.88269531 31.14855469 49.76539063 32.29710937 49.64453125 33.48046875 C49.08792829 37.91282191 47.99265302 42.048542 46.6875 46.3125 C46.46747314 47.04654053 46.24744629 47.78058105 46.02075195 48.53686523 C44.22834391 54.43765608 42.22409899 60.24716295 40 66 C44.0188515 67.81242323 47.61110675 69.33501617 52 70 C52 70.99 52 71.98 52 73 C45.79011871 72.55643705 41.39459439 71.08467498 36 68 C36.54211429 62.82346967 37.7935325 58.69587969 39.875 53.9375 C43.20010384 46.05503626 46 37.63987827 46 29 C45.34 28.67 44.68 28.34 44 28 C44.10441406 29.09054688 44.10441406 29.09054688 44.2109375 30.203125 C44.67150451 38.75651237 42.96095779 44.96944019 38 52 C32.76411305 57.34788454 27.33464825 60.59494185 19.78125 61.30078125 C8.87046632 61.33974833 8.87046632 61.33974833 4 58 C4.33 57.34 4.66 56.68 5 56 C5.78375 56.165 6.5675 56.33 7.375 56.5 C16.0499174 57.69654033 23.38003829 57.58574244 30.91015625 52.78125 C35.73969724 49.08988109 38.51617323 44.90018691 40 39 C40.90820904 31.35980845 40.86117385 24.26233572 36 18 C31.45159347 13.06880679 26.19152016 9.33042641 19.32421875 8.7890625 C14.45577109 8.72318364 9.77434585 8.96770901 5 10 C4.67 9.34 4.34 8.68 4 8 C3.34 8.66 2.68 9.32 2 10 C1.855625 8.906875 1.71125 7.81375 1.5625 6.6875 C1.11711896 3.06877013 1.11711896 3.06877013 0 0 Z M65 20 C60.7416066 26.68825476 58.86509112 33.39278071 60.4609375 41.27734375 C62.52547295 48.38177455 66.2435267 53.55433251 72.625 57.375 C79.21883279 60.54980838 86.12072974 61.22447634 93.125 58.8125 C100.27684161 55.71289469 104.85319343 52.208911 108.11328125 44.94140625 C110.3706496 37.45330771 110.17658206 29.67432139 107 22.5 C103.50446337 16.49636647 98.89496646 13.13730825 92.5 10.625 C81.10699947 8.59053562 72.77402801 11.29515711 65 20 Z " fill="#0F1114" transform="translate(102,95)"/>
<path d="M0 0 C5.6594479 0.56669669 10.73801101 1.64564427 16.13671875 3.40625 C16.89014053 3.64671555 17.64356232 3.88718109 18.41981506 4.13493347 C20.84557261 4.91379324 23.26688835 5.70530129 25.6875 6.5 C26.92929016 6.90516342 26.92929016 6.90516342 28.19616699 7.31851196 C41.10879255 11.54463547 53.75700193 16.06760288 66 22 C66.75603516 22.36158203 67.51207031 22.72316406 68.29101562 23.09570312 C93.90696735 35.49898632 112.07978189 54.28967959 121.79760742 81.32299805 C131.0419678 108.48290347 134.13390474 137.31298888 136.75 165.75 C136.8151178 166.45164276 136.8802356 167.15328552 136.94732666 167.87619019 C137.62490923 175.27286104 138.16362912 182.57123803 138 190 C137.01 190 136.02 190 135 190 C134.69486592 187.27505127 134.39032662 184.55003777 134.08642578 181.82495117 C133.8161776 179.40313714 133.5449902 176.98142776 133.27294922 174.55981445 C132.5829845 168.38538281 131.91346189 162.21073377 131.30859375 156.02734375 C129.12186738 133.92499907 126.68410362 111.26260124 120 90 C119.71769531 89.01386719 119.43539062 88.02773438 119.14453125 87.01171875 C114.98669864 73.30358068 108.22540024 60.93259174 99 50 C98.39929688 49.28585937 97.79859375 48.57171875 97.1796875 47.8359375 C76.39959746 25.25670547 41.59905741 16.1936291 13.43505859 7.22314453 C12.2177002 6.82981934 11.0003418 6.43649414 9.74609375 6.03125 C8.65997803 5.68642578 7.5738623 5.34160156 6.45483398 4.98632812 C4 4 4 4 3 2 C2.01 1.34 1.02 0.68 0 0 Z " fill="#141316" transform="translate(268,244)"/>
<path d="M0 0 C-3.30771737 2.20514491 -6.57738798 3.28190833 -10.32421875 4.46875 C-11.83179483 4.95674904 -13.33919336 5.44529685 -14.84643555 5.93432617 C-15.63674164 6.18942963 -16.42704773 6.44453308 -17.24130249 6.70736694 C-56.22603746 18.87492548 -56.22603746 18.87492548 -90 41 C-90.76570313 41.66257812 -91.53140625 42.32515625 -92.3203125 43.0078125 C-126.52486644 74.42962307 -128.41349481 141.66056504 -134 185 C-135.32 185 -136.64 185 -138 185 C-126.87615958 66.38977879 -126.87615958 66.38977879 -91 36 C-70.42115598 19.90965384 -45.36914526 10.89339666 -20.8125 2.75 C-19.64952393 2.35498291 -18.48654785 1.95996582 -17.28833008 1.55297852 C-11.02303932 -0.45678166 -6.4590501 -1.48266351 0 0 Z " fill="#161417" transform="translate(139,249)"/>
<path d="M0 0 C0.33 0.99 0.66 1.98 1 3 C1.99 3.33 2.98 3.66 4 4 C3.67 4.66 3.34 5.32 3 6 C2.34 6 1.68 6 1 6 C1 20.52 1 35.04 1 50 C1.66 50.33 2.32 50.66 3 51 C2.505 51.495 2.505 51.495 2 52 C1.86428796 72.84537004 7.10761207 93.78102425 21.86816406 109.11083984 C29.9086727 117.03806296 38.39129055 120.58951873 49 124 C45.80410498 126.13059668 44.745469 126.27174637 41.078125 125.59375 C27.18918806 121.6254823 16.18017362 110.93023796 9.08984375 98.70703125 C2.2399327 85.60348591 -1.72724026 72.02217855 -2.25 57.25 C-2.60174417 51.82674449 -3.62879982 49.41265247 -7.43359375 45.64453125 C-12.13773382 40.70577073 -13.30313764 34.82956867 -13.625 28.1875 C-13.39008562 19.84803963 -10.42318605 12.96718073 -4.984375 6.6640625 C-3 5 -3 5 0 5 C0 3.35 0 1.7 0 0 Z " fill="#0D0F12" transform="translate(105,100)"/>
<path d="M0 0 C0.33 0 0.66 0 1 0 C0.24658101 11.30128488 -3.65347001 21.09577231 -9 31 C-8.21625 31.86625 -7.4325 32.7325 -6.625 33.625 C-2.68011672 38.41920659 -1.52183953 43.24556248 -1.6875 49.375 C-3.00101034 60.40848684 -7.19852158 69.14474865 -15.625 76.3125 C-20.54699764 79.82684462 -26.14302428 80.88717461 -32 82 C-33.37870639 95.99176263 -34.42101862 109.9520834 -35 124 C-35.66 124 -36.32 124 -37 124 C-37.05027161 119.69907044 -37.08612107 115.39830657 -37.10986328 111.09716797 C-37.1197839 109.64075738 -37.13332468 108.18436593 -37.15087891 106.72802734 C-37.26497481 97.00302923 -36.97916619 87.57173568 -35 78 C-33.21506833 76.21506833 -30.35933082 76.57108814 -27.9375 76.3125 C-21.55246836 75.34740212 -17.3542628 73.83921624 -13 69 C-7.5417453 61.42842105 -4.66228611 52.34768365 -6 43 C-7.66772994 38.14295146 -10.07564581 34.36373217 -14 31 C-13.34 31 -12.68 31 -12 31 C-9.33698246 27.37829615 -8.71228148 24.36272409 -8 20 C-7.06057514 17.97084231 -6.07401615 15.96124688 -5 14 C-4.34 14 -3.68 14 -3 14 C-2.86722656 13.24074219 -2.73445313 12.48148438 -2.59765625 11.69921875 C-2.42105469 10.70535156 -2.24445313 9.71148437 -2.0625 8.6875 C-1.88847656 7.70136719 -1.71445312 6.71523437 -1.53515625 5.69921875 C-1 3 -1 3 0 0 Z " fill="#0A0B0D" transform="translate(279,94)"/>
<path d="M0 0 C0.99 0 1.98 0 3 0 C2.42537964 16.9983096 1.34519051 33.92171449 0 50.875 C-0.35677208 55.41386215 -0.71087216 59.95292397 -1.0625 64.4921875 C-1.14604736 65.56877625 -1.22959473 66.64536499 -1.31567383 67.75457764 C-2.00938253 76.83013505 -2.55303207 85.90920166 -3 95 C-4.32 95 -5.64 95 -7 95 C-6.5751733 80.18966224 -5.61717251 65.46578941 -4.36221313 50.70706177 C-3.23743958 37.46187466 -2.34805022 24.21597271 -1.64672852 10.94165039 C-1.57510498 9.64606201 -1.50348145 8.35047363 -1.4296875 7.015625 C-1.37022949 5.87383789 -1.31077148 4.73205078 -1.24951172 3.55566406 C-1 1 -1 1 0 0 Z " fill="#171215" transform="translate(61,339)"/>
<path d="M0 0 C9.55329704 1.46973801 16.90121262 8.91482097 23 16 C23.84855699 17.37421177 24.66468204 18.76931125 25.4375 20.1875 C27.38843858 23.60500621 29.37856967 25.03787897 32.8125 26.9375 C42.17480607 32.12020515 47.56899948 39.98481224 51 50 C53.32306695 58.47736995 54.52620665 68.45131668 52 77 C51.01 77 50.02 77 49 77 C48.98541748 76.38592285 48.97083496 75.7718457 48.95581055 75.13916016 C48.88038055 72.30054015 48.78404224 69.46297742 48.6875 66.625 C48.65366211 65.17673828 48.65366211 65.17673828 48.61914062 63.69921875 C48.2986291 55.01627025 47.22449294 46.74239865 41.3125 40 C38 36.15942029 38 36.15942029 38 34 C37.401875 33.731875 36.80375 33.46375 36.1875 33.1875 C34.01273336 32.00691239 32.73183488 30.73183488 31 29 C30.01 28.67 29.02 28.34 28 28 C24.51278911 26.83759637 24.2980639 26.25461129 22.5625 23.1875 C20.67494779 19.99010095 18.68324987 17.58387025 16 15 C16 14.34 16 13.68 16 13 C15.4225 12.72929687 14.845 12.45859375 14.25 12.1796875 C8.96288239 9.40762236 3.96290344 5.45826637 0 1 C0 0.67 0 0.34 0 0 Z " fill="#14191E" transform="translate(229,15)"/>
<path d="M0 0 C0.33 0 0.66 0 1 0 C0.86980469 1.11117187 0.73960937 2.22234375 0.60546875 3.3671875 C-0.29098187 12.35392807 -0.81602249 19.47693714 5 27 C11.60941108 34.23887881 21.7872556 36.54721934 31.26953125 37.23828125 C44.84273215 37.52261512 57.65096095 34.70422443 70 29 C70 29.66 70 30.32 70 31 C68.34928604 32.02611949 66.68029994 33.02308143 65 34 C64.35224609 34.74056641 64.35224609 34.74056641 63.69140625 35.49609375 C61.37708662 37.55386063 59.25227616 37.93158089 56.25 38.625 C55.24453125 38.86476563 54.2390625 39.10453125 53.203125 39.3515625 C37.41513266 42.54766827 19.94030983 43.07848277 6 34 C-0.04405226 28.80642414 -3.32975516 22.81599554 -4.2421875 14.8984375 C-4.40147666 10.31444951 -3.54543386 6.29287183 -2 2 C-1.34 1.34 -0.68 0.68 0 0 Z " fill="#141417" transform="translate(155,243)"/>
<path d="M0 0 C0.99 0.33 1.98 0.66 3 1 C3.14528667 8.71479227 3.28730422 16.4296402 3.42724609 24.14453125 C3.47502902 26.75880232 3.52350961 29.37306074 3.57275391 31.98730469 C3.87371699 47.99362682 4.07479991 63.9907425 4 80 C2.68 80 1.36 80 0 80 C-0.63761166 59.54216209 -1.10442658 39.09368018 -1.125 18.625 C-1.12749756 17.74166992 -1.12999512 16.85833984 -1.13256836 15.94824219 C-1.13838752 13.45764094 -1.1370164 10.96716468 -1.1328125 8.4765625 C-1.13479645 7.73048737 -1.1367804 6.98441223 -1.13882446 6.21572876 C-1.11535403 1.11535403 -1.11535403 1.11535403 0 0 Z " fill="#181113" transform="translate(310,354)"/>
<path d="M0 0 C0.33 0 0.66 0 1 0 C1 11.88 1 23.76 1 36 C-5.052992 29.947008 -7.10610982 26.4911308 -7.5 18.1875 C-7.34183946 11.20207597 -4.98406313 4.98406313 0 0 Z " fill="#FBFBFB" transform="translate(102,110)"/>
<path d="M0 0 C0.33 0 0.66 0 1 0 C1.02578125 0.85980469 1.0515625 1.71960938 1.078125 2.60546875 C1.69732556 15.51017126 3.97736378 28.62248298 13.89453125 37.7421875 C20.19433449 42.44074205 27.44538961 44.22083451 35 46 C36.15822266 46.28230469 36.15822266 46.28230469 37.33984375 46.5703125 C41.31342802 47.21215431 45.29537864 47.36909479 49.3125 47.5625 C50.14845703 47.60568359 50.98441406 47.64886719 51.84570312 47.69335938 C53.89696935 47.79885307 55.9484648 47.89987315 58 48 C58 48.33 58 48.66 58 49 C41.76685994 50.89782013 27.32211738 49.85326505 13 41 C10 38.4375 10 38.4375 8 36 C7.319375 35.278125 6.63875 34.55625 5.9375 33.8125 C-0.54042255 24.40906404 -1.54649922 14.13893994 -1 3 C-0.67 2.01 -0.34 1.02 0 0 Z " fill="#140D0E" transform="translate(140,250)"/>
<path d="M0 0 C-0.90016755 5.8125105 -5.5091531 8.6725537 -10 12 C-25.12032748 21.80586646 -41.92138989 26.56694261 -60 24 C-60.99 23.34 -61.98 22.68 -63 22 C-62.06486572 21.94054199 -62.06486572 21.94054199 -61.11083984 21.87988281 C-39.61006701 20.44570559 -21.00286707 17.62245411 -5.0234375 1.72265625 C-3 0 -3 0 0 0 Z " fill="#111215" transform="translate(218,203)"/>
<path d="M0 0 C2.79629601 4.77138757 2.01363566 8.72475431 1 14 C-0.16591669 18.11492039 -1.58476427 22.11290921 -3.0625 26.125 C-3.43955078 27.176875 -3.81660156 28.22875 -4.20507812 29.3125 C-5.12662951 31.87884564 -6.058362 34.44097155 -7 37 C-2.9947883 38.75965131 0.65883413 40.3422476 5 41 C5 41.99 5 42.98 5 44 C-1.20988129 43.55643705 -5.60540561 42.08467498 -11 39 C-10.46011534 33.8873573 -9.25288158 29.82047509 -7.1875 25.125 C-3.73040299 16.97881094 -1.79809136 8.64141553 0 0 Z " fill="#0F1012" transform="translate(149,124)"/>
<path d="M0 0 C1.79570284 2.66125745 2.03345719 3.78111062 1.5390625 7.015625 C1.08660156 8.61664063 1.08660156 8.61664063 0.625 10.25 C0.32851562 11.32765625 0.03203125 12.4053125 -0.2734375 13.515625 C-0.51320313 14.33546875 -0.75296875 15.1553125 -1 16 C-1.33 16 -1.66 16 -2 16 C-2.1863871 20.10051626 -1.82169304 22.39770474 0 26 C0.28737197 27.36767772 0.53596197 28.74394507 0.75 30.125 C1.73235704 35.00457675 3.97295651 38.56327604 6.7578125 42.640625 C8.16773731 45.3185954 8.24327624 47.01722179 8 50 C0.88129781 44.13753938 -3.95048879 34.1504259 -5 25 C-5.73497254 16.20329736 -4.80685375 9.0112103 -1 1 C-0.67 0.67 -0.34 0.34 0 0 Z " fill="#1D2026" transform="translate(93,44)"/>
<path d="M0 0 C0.66 0 1.32 0 2 0 C2.09796875 0.7734375 2.1959375 1.546875 2.296875 2.34375 C3.53884118 10.99468684 4.80845535 17.76491875 11.875 23.375 C17.94227357 27.48293385 23.40291951 28.26245462 30.609375 28.65625 C33 29 33 29 35 31 C29.88814996 33.55592502 22.4919987 32.73455609 17.1640625 31.1640625 C11.02889686 28.35132502 6.91662127 24.43975177 3 19 C2.360625 18.113125 1.72125 17.22625 1.0625 16.3125 C-0.65168388 10.96827968 -0.2228899 5.56399232 0 0 Z " fill="#0B0D0F" transform="translate(160,126)"/>
<path d="M0 0 C1.44246094 -0.02126953 1.44246094 -0.02126953 2.9140625 -0.04296875 C5.375 0.1875 5.375 0.1875 7.375 2.1875 C7.38671875 4.28125 7.38671875 4.28125 7.0625 6.6875 C6.96324219 7.4815625 6.86398438 8.275625 6.76171875 9.09375 C6.375 11.1875 6.375 11.1875 5.375 13.1875 C5.29099471 14.78197464 5.26772533 16.37990545 5.27734375 17.9765625 C5.28056641 18.91757813 5.28378906 19.85859375 5.28710938 20.828125 C5.29548828 21.81296875 5.30386719 22.7978125 5.3125 23.8125 C5.31701172 24.80507812 5.32152344 25.79765625 5.32617188 26.8203125 C5.33797855 29.2761016 5.354446 31.73177104 5.375 34.1875 C6.035 34.5175 6.695 34.8475 7.375 35.1875 C7.354375 36.13625 7.33375 37.085 7.3125 38.0625 C7.14948174 41.09416283 7.14948174 41.09416283 8.375 43.1875 C7.385 43.1875 6.395 43.1875 5.375 43.1875 C2.83016324 35.73476379 2.05205594 28.7661347 2 20.9375 C1.98646484 20.09864258 1.97292969 19.25978516 1.95898438 18.39550781 C1.99957066 12.68411589 3.09409604 8.42513132 5.375 3.1875 C0.425 3.5175 -4.525 3.8475 -9.625 4.1875 C-9.625 3.1975 -9.625 2.2075 -9.625 1.1875 C-6.37294841 0.22421457 -3.38614248 0.02281767 0 0 Z " fill="#111418" transform="translate(220.625,60.8125)"/>
<path d="M0 0 C0.99 0.33 1.98 0.66 3 1 C1.78995454 4.63013639 0.96377988 4.87693578 -2.3125 6.625 C-3.09238281 7.05039063 -3.87226563 7.47578125 -4.67578125 7.9140625 C-9.98607187 10.39517307 -15.17578615 10.21691047 -20.9375 10.25 C-21.83146484 10.270625 -22.72542969 10.29125 -23.64648438 10.3125 C-28.60805422 10.34196738 -31.94693837 10.21537248 -36 7 C-35.67 6.34 -35.34 5.68 -35 5 C-34.35417969 5.15855469 -33.70835937 5.31710938 -33.04296875 5.48046875 C-22.86177271 7.21872173 -11.03789623 7.52764189 -2 2 C-1.34 1.34 -0.68 0.68 0 0 Z " fill="#141618" transform="translate(179,180)"/>
<path d="M0 0 C0.99 0.33 1.98 0.66 3 1 C1.91755848 3.43549343 0.81416395 5.21580961 -0.9375 7.25 C-3.52422604 10.69896805 -4.61871936 13.9252221 -6 18 C-6.99 18 -7.98 18 -9 18 C-9 20.64 -9 23.28 -9 26 C-9.33 26 -9.66 26 -10 26 C-10 23.36 -10 20.72 -10 18 C-12.31 17.67 -14.62 17.34 -17 17 C-17.33 18.32 -17.66 19.64 -18 21 C-18.12375 20.195625 -18.2475 19.39125 -18.375 18.5625 C-18.58125 17.716875 -18.7875 16.87125 -19 16 C-19.66 15.67 -20.32 15.34 -21 15 C-16.67265609 12.77076223 -13.71599818 13.07529447 -9 14 C-8.68546875 13.32453125 -8.3709375 12.6490625 -8.046875 11.953125 C-3.79613357 3.09314587 -3.79613357 3.09314587 0 0 Z " fill="#191B1F" transform="translate(169,108)"/>
<path d="M0 0 C0.33 0 0.66 0 1 0 C1 14.52 1 29.04 1 44 C-2.33669068 39.55107909 -2.427475 37.13235957 -2.36328125 31.875 C-2.36377975 31.09108887 -2.36427826 30.30717773 -2.36479187 29.49951172 C-2.36245578 27.84535176 -2.35275461 26.19118796 -2.33618164 24.53710938 C-2.31258205 22.00879038 -2.31562488 19.48152624 -2.32226562 16.953125 C-2.31668862 15.34374373 -2.3095786 13.73436689 -2.30078125 12.125 C-2.30169266 11.3707373 -2.30260406 10.61647461 -2.30354309 9.83935547 C-2.25291452 6.08134063 -2.09757617 3.18994415 0 0 Z " fill="#07090C" transform="translate(105,106)"/>
<path d="M0 0 C-0.33 0.66 -0.66 1.32 -1 2 C-4.76824998 3.19986203 -8.68567936 3.85900516 -12.5625 4.625 C-13.69099365 4.85082764 -14.8194873 5.07665527 -15.98217773 5.30932617 C-24.79117225 6.97565504 -33.05592045 7.5998265 -42 7 C-42 6.67 -42 6.34 -42 6 C-40.02 6 -38.04 6 -36 6 C-36 5.34 -36 4.68 -36 4 C-31.02351129 3.1345237 -26.38126258 2.96136762 -21.33203125 3.16015625 C-18.72151111 2.9808743 -17.27136048 2.25474349 -15 1 C-9.41340271 -0.74008768 -5.71518037 -1.19066258 0 0 Z " fill="#101317" transform="translate(210,65)"/>
<path d="M0 0 C1.485 0.99 1.485 0.99 3 2 C3.66 1.34 4.32 0.68 5 0 C5 2.31 5 4.62 5 7 C5.70769531 6.67773438 6.41539063 6.35546875 7.14453125 6.0234375 C14.93740899 3.23036778 22.73244589 4.74124464 30.13671875 7.9296875 C32 9 32 9 33 11 C32.34 11.66 31.68 12.32 31 13 C30.47792969 12.71125 29.95585937 12.4225 29.41796875 12.125 C21.38170445 8.0716828 13.73115795 8.11218207 5 10 C4.67 9.34 4.34 8.68 4 8 C3.34 8.66 2.68 9.32 2 10 C1.855625 8.906875 1.71125 7.81375 1.5625 6.6875 C1.11711896 3.06877013 1.11711896 3.06877013 0 0 Z " fill="#080A0C" transform="translate(102,95)"/>
<path d="M0 0 C0.33 0 0.66 0 1 0 C2.65578932 6.13802154 3.88355273 11.36465706 1.125 17.3125 C-2.42605936 23.32124077 -7.02961229 27.51480615 -13.25 30.625 C-16 31 -16 31 -18.375 29.625 C-18.91125 29.08875 -19.4475 28.5525 -20 28 C-18.80375 27.5875 -17.6075 27.175 -16.375 26.75 C-9.09937174 23.9398367 -5.27802384 20.93346633 -1.96875 13.81640625 C-0.40804327 9.27902902 -0.09978731 4.77164796 0 0 Z " fill="#131518" transform="translate(211,126)"/>
<path d="M0 0 C4.39963176 6.59944763 2.63877863 13.4372277 1.5625 20.875 C1.41490234 21.94492187 1.26730469 23.01484375 1.11523438 24.1171875 C0.75142443 26.74600777 0.3794543 29.37340016 0 32 C-1.32 32 -2.64 32 -4 32 C-3.5233575 27.79137679 -3.04324056 23.58315691 -2.5625 19.375 C-2.42779297 18.18519531 -2.29308594 16.99539063 -2.15429688 15.76953125 C-2.02216797 14.61582031 -1.89003906 13.46210938 -1.75390625 12.2734375 C-1.63345947 11.21560059 -1.5130127 10.15776367 -1.38891602 9.06787109 C-1.00363713 6.02869062 -0.52410529 3.01805535 0 0 Z " fill="#1E1E20" transform="translate(5,402)"/>
<path d="M0 0 C4.03848316 -0.02481344 8.07693647 -0.0429136 12.11547852 -0.05493164 C13.48788222 -0.05994454 14.86028062 -0.06675658 16.23266602 -0.07543945 C18.21107651 -0.08763857 20.1895268 -0.09272248 22.16796875 -0.09765625 C23.35672607 -0.10289307 24.5454834 -0.10812988 25.77026367 -0.11352539 C28.64737487 -0.01239479 31.20673413 0.33449807 34 1 C27.45850696 5.08843315 18.99139964 4.05768133 11.625 3.625 C10.27341797 3.55925781 10.27341797 3.55925781 8.89453125 3.4921875 C2.26919643 3.13459821 2.26919643 3.13459821 0 2 C0 1.34 0 0.68 0 0 Z " fill="#1F2328" transform="translate(138,2)"/>
<path d="M0 0 C3.31940087 1.45130755 5.52775203 3.30629947 8.125 5.8125 C15.10250675 12.12657168 23.06764457 15.34618426 32 18 C28.80832006 20.12778663 27.75712536 20.26518677 24.09375 19.60546875 C17.15031835 17.5975734 8.54654902 13.52719826 4.875 7 C4.58625 6.34 4.2975 5.68 4 5 C2.6949419 3.31110128 1.36639342 1.6396721 0 0 Z " fill="#0E1012" transform="translate(122,206)"/>
<path d="M0 0 C0.33 0 0.66 0 1 0 C1.01981934 0.71430176 1.03963867 1.42860352 1.06005859 2.16455078 C1.10483007 21.24113462 1.10483007 21.24113462 4 40 C4.66 40.33 5.32 40.66 6 41 C5.01 41.495 5.01 41.495 4 42 C3.01 41.67 2.02 41.34 1 41 C-1.96038712 34.28735265 -2.42345694 27.23013512 -2 20 C-1.34 20 -0.68 20 0 20 C0 13.4 0 6.8 0 0 Z " fill="#222427" transform="translate(244,198)"/>
<path d="M0 0 C1.875 0.75 1.875 0.75 2.875 2.75 C3.0625 6.25 3.0625 6.25 2.875 9.75 C2.215 10.41 1.555 11.07 0.875 11.75 C-2.42214793 11.42028521 -3.7476839 11.1273161 -6.125 8.75 C-5.9375 5.25 -5.9375 5.25 -5.125 1.75 C-2.125 -0.25 -2.125 -0.25 0 0 Z " fill="#13171C" transform="translate(188.125,123.25)"/>
<path d="M0 0 C0.66 0.33 1.32 0.66 2 1 C3.43258966 8.59272519 4.24231176 17.52562746 2 25 C1.01 25 0.02 25 -1 25 C-1.02900455 21.3958502 -1.04680018 17.79173038 -1.0625 14.1875 C-1.07087891 13.16333984 -1.07925781 12.13917969 -1.08789062 11.08398438 C-1.09111328 10.10107422 -1.09433594 9.11816406 -1.09765625 8.10546875 C-1.10289307 7.19949951 -1.10812988 6.29353027 -1.11352539 5.36010742 C-1 3 -1 3 0 0 Z " fill="#181C21" transform="translate(279,67)"/>
<path d="M0 0 C0.66 0 1.32 0 2 0 C2 7.26 2 14.52 2 22 C1.67 22 1.34 22 1 22 C0.67 28.27 0.34 34.54 0 41 C-0.33 41 -0.66 41 -1 41 C-1.02464705 35.32169922 -1.04283462 29.64342931 -1.05493164 23.96508789 C-1.05997256 22.03181415 -1.06680519 20.09854424 -1.07543945 18.1652832 C-1.08751565 15.39273128 -1.09323057 12.62022959 -1.09765625 9.84765625 C-1.10281754 8.97786636 -1.10797882 8.10807648 -1.11329651 7.21192932 C-1.11349185 5.14094186 -1.06208168 3.07005676 -1 1 C-0.67 0.67 -0.34 0.34 0 0 Z " fill="#232C31" transform="translate(310,354)"/>
<path d="M0 0 C0.99 0 1.98 0 3 0 C2.67 7.92 2.34 15.84 2 24 C0.68 23.67 -0.64 23.34 -2 23 C-1.86183041 19.35383329 -1.71318466 15.70816926 -1.5625 12.0625 C-1.50352539 10.50112305 -1.50352539 10.50112305 -1.44335938 8.90820312 C-1.40146484 7.91884766 -1.35957031 6.92949219 -1.31640625 5.91015625 C-1.27974854 4.99371338 -1.24309082 4.07727051 -1.20532227 3.13305664 C-1 1 -1 1 0 0 Z " fill="#171316" transform="translate(61,339)"/>
<path d="M0 0 C4.875 0.875 4.875 0.875 6 2 C6.1875 5.4375 6.1875 5.4375 6 9 C5.34 9.66 4.68 10.32 4 11 C-0.55555556 10.44444444 -0.55555556 10.44444444 -2 9 C-2.26293056 4.96839809 -2.29404844 3.44107266 0 0 Z " fill="#15181D" transform="translate(123,121)"/>
<path d="M0 0 C0.495 0.37125 0.99 0.7425 1.5 1.125 C-5.16602763 5.56901842 -12.56257126 5.44007988 -20.3125 5.375 C-21.72305664 5.38660156 -21.72305664 5.38660156 -23.16210938 5.3984375 C-24.06380859 5.39585937 -24.96550781 5.39328125 -25.89453125 5.390625 C-26.70768799 5.38836914 -27.52084473 5.38611328 -28.35864258 5.38378906 C-30.5 5.125 -30.5 5.125 -33.5 3.125 C-32.84515625 3.0748877 -32.1903125 3.02477539 -31.515625 2.97314453 C-28.5098235 2.73911232 -25.50495665 2.49463195 -22.5 2.25 C-21.47003906 2.17136719 -20.44007813 2.09273437 -19.37890625 2.01171875 C-14.77804338 1.63075558 -10.372174 1.20181713 -5.90625 0 C-2.5 -0.875 -2.5 -0.875 0 0 Z " fill="#0E0F11" transform="translate(188.5,221.875)"/>
<path d="M0 0 C3.62605799 0.54940273 4.96930216 1.70182858 7.125 4.625 C10.18892083 9.00314067 12.42487417 12.91719205 11.6640625 18.4375 C11.18586028 20.65524942 10.6413323 22.8244035 10 25 C9.67 25 9.34 25 9 25 C8.97421875 24.3709375 8.9484375 23.741875 8.921875 23.09375 C8.35584966 14.55191313 6.18714391 8.96617448 0 3 C0 2.01 0 1.02 0 0 Z " fill="#1A1C1F" transform="translate(134,106)"/>
<path d="M0 0 C0.99 0.66 1.98 1.32 3 2 C-0.76625832 3.88312916 -5.27490227 3.81940346 -9.421875 4.3046875 C-13.06816184 5.01324542 -15.71715392 6.3201811 -19 8 C-19.66 7.67 -20.32 7.34 -21 7 C-20 4 -20 4 -18.3203125 2.83203125 C-12.2506319 0.01319382 -6.6773602 -0.94139832 0 0 Z " fill="#1C1C20" transform="translate(192,102)"/>
<path d="M0 0 C5.06598244 8.1055719 3.60377974 20.97873899 2 30 C1.67 30 1.34 30 1 30 C-1.94927041 7.06415598 -1.94927041 7.06415598 0 0 Z " fill="#110D10" transform="translate(399,373)"/>
<path d="M0 0 C0.33 0 0.66 0 1 0 C1.18115526 11.03034265 0.614687 21.99051677 0 33 C-0.66 33 -1.32 33 -2 33 C-2.05855764 29.00006253 -2.09378299 25.00023692 -2.125 21 C-2.14175781 19.87464844 -2.15851563 18.74929687 -2.17578125 17.58984375 C-2.21227343 11.34968069 -1.85765989 5.96791525 0 0 Z " fill="#010102" transform="translate(244,185)"/>
<path d="M0 0 C2 2 2 2 2 7 C9.92 7.33 17.84 7.66 26 8 C26 8.33 26 8.66 26 9 C25.11477661 9.03758423 25.11477661 9.03758423 24.21166992 9.07592773 C21.53673186 9.19200052 18.8621362 9.31467572 16.1875 9.4375 C14.7943457 9.49647461 14.7943457 9.49647461 13.37304688 9.55664062 C12.0340332 9.61948242 12.0340332 9.61948242 10.66796875 9.68359375 C9.43469849 9.73858032 9.43469849 9.73858032 8.17651367 9.79467773 C5.82094822 9.93427772 5.82094822 9.93427772 3 11 C2.67 12.98 2.34 14.96 2 17 C-0.2422323 13.63665155 -0.39324354 11.90755033 -0.6875 7.9375 C-0.77386719 6.87402344 -0.86023438 5.81054688 -0.94921875 4.71484375 C-1 2 -1 2 0 0 Z " fill="#050709" transform="translate(212,120)"/>
<path d="M0 0 C1.125 1.625 1.125 1.625 2 4 C1.125 7.25 1.125 7.25 0 10 C-0.33 10 -0.66 10 -1 10 C-1 12.97 -1 15.94 -1 19 C-2.98 19.99 -2.98 19.99 -5 21 C-5.66 20.67 -6.32 20.34 -7 20 C-9.60931266 20.89363605 -9.60931266 20.89363605 -12 22 C-12 21.34 -12 20.68 -12 20 C-10.88625 19.7525 -9.7725 19.505 -8.625 19.25 C-6.60437133 18.53299027 -6.60437133 18.53299027 -5 17 C-4.0989948 13.98206997 -3.75154163 11.14309145 -3.484375 8.0078125 C-2.95419589 4.71557128 -1.87247973 2.72818283 0 0 Z " fill="#0F1316" transform="translate(113,16)"/>
<path d="M0 0 C6.625 -0.25 6.625 -0.25 10 2 C7.36 2 4.72 2 2 2 C3.65 2.33 5.3 2.66 7 3 C7 3.33 7 3.66 7 4 C5.35 4.33 3.7 4.66 2 5 C1.67 8.96 1.34 12.92 1 17 C0.34 16.67 -0.32 16.34 -1 16 C-1.33 17.98 -1.66 19.96 -2 22 C-2.33 22 -2.66 22 -3 22 C-2.88525534 19.45749979 -2.7585303 16.91652662 -2.625 14.375 C-2.5940625 13.66214844 -2.563125 12.94929687 -2.53125 12.21484375 C-2.28979845 7.82847392 -1.60657269 4.1405166 0 0 Z " fill="#151719" transform="translate(245,171)"/>
<path d="M0 0 C8.2425317 -0.26305952 15.91191011 0.39385449 24 2 C19.071287 5.28580867 15.58020606 4.9484782 9.9375 4.25 C9.20466797 4.17523437 8.47183594 4.10046875 7.71679688 4.0234375 C5.58984375 3.765625 5.58984375 3.765625 2 3 C1.34 2.01 0.68 1.02 0 0 Z " fill="#101317" transform="translate(173,4)"/>
<path d="M0 0 C0.33 0.99 0.66 1.98 1 3 C1.99 3.33 2.98 3.66 4 4 C3.67 4.66 3.34 5.32 3 6 C2.01 6 1.02 6 0 6 C-0.061875 6.556875 -0.12375 7.11375 -0.1875 7.6875 C-1.3364741 10.95765706 -3.51198688 12.63046369 -6 15 C-7.02813611 16.31175986 -8.04084432 17.6369893 -9 19 C-9.42039457 15.56677766 -9.60825977 13.0002494 -7.76953125 9.9765625 C-6.25352667 8.14238412 -4.85909422 6.48818004 -3 5 C-2.01 5 -1.02 5 0 5 C0 3.35 0 1.7 0 0 Z " fill="#131519" transform="translate(105,100)"/>
<path d="M0 0 C9.56149156 1.4709987 16.87531088 8.9283208 23 16 C24.8203125 18.58984375 24.8203125 18.58984375 26 21 C25.67 21.99 25.34 22.98 25 24 C24.64808594 23.43152344 24.29617187 22.86304687 23.93359375 22.27734375 C19.36938113 15.13905821 14.06869366 7.2449423 5.4375 5.125 C2 4 2 4 0.5625 1.875 C0.376875 1.25625 0.19125 0.6375 0 0 Z " fill="#0E1013" transform="translate(229,15)"/>
<path d="M0 0 C-0.33 4.95 -0.66 9.9 -1 15 C-1.33 15 -1.66 15 -2 15 C-2.33 11.7 -2.66 8.4 -3 5 C-4.98 5.33 -6.96 5.66 -9 6 C-9 10.29 -9 14.58 -9 19 C-9.33 19 -9.66 19 -10 19 C-10 13.72 -10 8.44 -10 3 C-1.125 0 -1.125 0 0 0 Z " fill="#59B4BB" transform="translate(152,246)"/>
<path d="M0 0 C2 4 2 4 2.875 5.9375 C4.29857599 8.54738932 6.13741373 10.68587767 8 13 C10.46943523 16.52776461 11.37041339 18.67851048 11 23 C4.63389404 17.7573245 -0.00344371 9.20693414 -1 1 C-0.67 0.67 -0.34 0.34 0 0 Z " fill="#121519" transform="translate(90,71)"/>
<path d="M0 0 C0.66 0.66 1.32 1.32 2 2 C-0.64 2.66 -3.28 3.32 -6 4 C-6.33 8.95 -6.66 13.9 -7 19 C-7.33 19 -7.66 19 -8 19 C-8.06058594 18.25234375 -8.12117187 17.5046875 -8.18359375 16.734375 C-8.26738281 15.74953125 -8.35117188 14.7646875 -8.4375 13.75 C-8.51871094 12.77546875 -8.59992188 11.8009375 -8.68359375 10.796875 C-8.95074584 8.43538247 -9.35371968 6.28098935 -10 4 C-11.65 3.67 -13.3 3.34 -15 3 C-10.02479657 -0.31680229 -5.86892336 -0.28398016 0 0 Z " fill="#23292E" transform="translate(149,245)"/>
<path d="M0 0 C3 1 3 1 4 3 C4.99 3.33 5.98 3.66 7 4 C7.33 4.66 7.66 5.32 8 6 C8.66 6.33 9.32 6.66 10 7 C11.34400833 7.98560611 12.67607028 8.98758315 14 10 C14.7425 10.556875 15.485 11.11375 16.25 11.6875 C16.8275 12.120625 17.405 12.55375 18 13 C14.01880905 12.42208519 11.2755575 11.18914835 7.875 9.0625 C6.60269531 8.27552734 6.60269531 8.27552734 5.3046875 7.47265625 C3.52378904 6.33469232 1.7584751 5.17231673 0 4 C-1.65 5.32 -3.3 6.64 -5 8 C-5.33 6.68 -5.66 5.36 -6 4 C-5.38125 3.71125 -4.7625 3.4225 -4.125 3.125 C-1.86674235 2.06279958 -1.86674235 2.06279958 0 0 Z " fill="#0F1216" transform="translate(123,53)"/>
<path d="M0 0 C0.33 0 0.66 0 1 0 C1.86711984 9.33911507 2.35901442 17.79789415 0 27 C-0.33 27 -0.66 27 -1 27 C-1.86711984 17.66088493 -2.35901442 9.20210585 0 0 Z " fill="#1E1E21" transform="translate(402,392)"/>
<path d="M0 0 C0.66 0 1.32 0 2 0 C10.03644647 13.44874715 10.03644647 13.44874715 9 21 C4.69097539 16.0446217 1.95076449 9.46519851 1 3 C0.67 2.01 0.34 1.02 0 0 Z " fill="#0F0E10" transform="translate(377,303)"/>
<path d="M0 0 C2.40610878 3.70170582 2.09717817 6.68768167 1.75 11 C1.61851563 12.8253125 1.61851563 12.8253125 1.484375 14.6875 C1.0539354 17.63115148 0.52999168 19.49181692 -1 22 C-3.10165427 14.51811081 -1.95751735 7.39312355 0 0 Z " fill="#100D11" transform="translate(8,387)"/>
<path d="M0 0 C0 0.66 0 1.32 0 2 C-6.46008837 3.95021536 -12.2718373 4.22262303 -19 4 C-19 3.67 -19 3.34 -19 3 C-21.64 2.67 -24.28 2.34 -27 2 C-27 1.67 -27 1.34 -27 1 C-23.4375865 0.83144992 -19.87505676 0.66549228 -16.3125 0.5 C-15.30509766 0.45230469 -14.29769531 0.40460938 -13.25976562 0.35546875 C-11.79506836 0.28779297 -11.79506836 0.28779297 -10.30078125 0.21875 C-9.40528564 0.17685547 -8.50979004 0.13496094 -7.5871582 0.09179688 C-5.05557612 0.00197194 -2.53292812 -0.01596803 0 0 Z " fill="#202428" transform="translate(207,296)"/>
<path d="M0 0 C-2.38584514 1.19292257 -4.77338031 2.36394368 -7.1875 3.5 C-10.0912513 4.70021344 -10.0912513 4.70021344 -11 7 C-12.32 7 -13.64 7 -15 7 C-17.25065102 8.91666921 -17.25065102 8.91666921 -19 11 C-19.99 10.67 -20.98 10.34 -22 10 C-15.83032458 4.04854461 -8.96364943 -0.91934866 0 0 Z " fill="#0F1115" transform="translate(136,4)"/>
<path d="M0 0 C0.33 0 0.66 0 1 0 C-0.3581339 16.84086042 -0.3581339 16.84086042 -6 22 C-6.33 22.66 -6.66 23.32 -7 24 C-7.66 24 -8.32 24 -9 24 C-8.57742724 22.5164999 -8.13643678 21.03823576 -7.6875 19.5625 C-7.44386719 18.73878906 -7.20023437 17.91507813 -6.94921875 17.06640625 C-6.63597656 16.38449219 -6.32273437 15.70257813 -6 15 C-5.01 14.67 -4.02 14.34 -3 14 C-2.86722656 13.24074219 -2.73445313 12.48148438 -2.59765625 11.69921875 C-2.42105469 10.70535156 -2.24445313 9.71148437 -2.0625 8.6875 C-1.88847656 7.70136719 -1.71445312 6.71523437 -1.53515625 5.69921875 C-1 3 -1 3 0 0 Z " fill="#101317" transform="translate(279,94)"/>
<path d="M0 0 C1.258125 -0.04125 2.51625 -0.0825 3.8125 -0.125 C4.52019531 -0.14820313 5.22789062 -0.17140625 5.95703125 -0.1953125 C8 0 8 0 11 2 C11 2.66 11 3.32 11 4 C8.69 3.67 6.38 3.34 4 3 C3.67 4.65 3.34 6.3 3 8 C2.01 8.33 1.02 8.66 0 9 C0 6.03 0 3.06 0 0 Z " fill="#0E0D0F" transform="translate(246,239)"/>
<path d="M0 0 C2.34378304 0.16741307 4.37872262 0.52193633 6.625 1.1875 C6.625 1.8475 6.625 2.5075 6.625 3.1875 C10.09 2.6925 10.09 2.6925 13.625 2.1875 C14.615 3.5075 15.605 4.8275 16.625 6.1875 C16.295 6.8475 15.965 7.5075 15.625 8.1875 C14.93535156 7.92195312 14.24570313 7.65640625 13.53515625 7.3828125 C7.59998913 5.15203638 1.84609789 3.41132254 -4.375 2.1875 C-2.375 0.1875 -2.375 0.1875 0 0 Z " fill="#ECEDEE" transform="translate(212.375,5.8125)"/>
<path d="M0 0 C0.99 0.33 1.98 0.66 3 1 C1.07289294 14.6332574 1.07289294 14.6332574 -1 21 C-1.99 21 -2.98 21 -4 21 C-3.79503906 20.48953125 -3.59007812 19.9790625 -3.37890625 19.453125 C-0.99030189 13.00732185 -0.33564879 6.8402909 0 0 Z " fill="#D7D8D9" transform="translate(146,123)"/>
<path d="M0 0 C0.99 0 1.98 0 3 0 C4.75486327 4.49683714 5.36420713 8.17425558 5 13 C4.01 14.485 4.01 14.485 3 16 C2.49595192 13.89679937 1.99689492 11.79240209 1.5 9.6875 C1.08234375 7.92986328 1.08234375 7.92986328 0.65625 6.13671875 C0 3 0 3 0 0 Z " fill="#121012" transform="translate(390,337)"/>
<path d="M0 0 C2.97 0.495 2.97 0.495 6 1 C5.34 1.66 4.68 2.32 4 3 C3.01 3 2.02 3 1 3 C1.01160156 3.84304687 1.02320313 4.68609375 1.03515625 5.5546875 C1.04869141 7.19824219 1.04869141 7.19824219 1.0625 8.875 C1.07410156 9.96554688 1.08570313 11.05609375 1.09765625 12.1796875 C1 15 1 15 0 17 C-0.66 17 -1.32 17 -2 17 C-1.85786703 15.10388566 -1.71113093 13.20811606 -1.5625 11.3125 C-1.48128906 10.25675781 -1.40007812 9.20101562 -1.31640625 8.11328125 C-1.03548319 5.34913703 -0.59843148 2.71054259 0 0 Z " fill="#050608" transform="translate(145,120)"/>
<path d="M0 0 C7.59 0 15.18 0 23 0 C23 0.33 23 0.66 23 1 C21.84371094 1.09087891 21.84371094 1.09087891 20.6640625 1.18359375 C19.15972656 1.30927734 19.15972656 1.30927734 17.625 1.4375 C16.12839844 1.55931641 16.12839844 1.55931641 14.6015625 1.68359375 C12.02072387 1.84965626 12.02072387 1.84965626 10 3 C8.125 3.1328125 8.125 3.1328125 6 3.125 C4.948125 3.12886719 4.948125 3.12886719 3.875 3.1328125 C2 3 2 3 0 2 C0 1.34 0 0.68 0 0 Z " fill="#0F1214" transform="translate(138,2)"/>
<path d="M0 0 C1.07765625 0.11085938 2.1553125 0.22171875 3.265625 0.3359375 C4.08546875 0.43132812 4.9053125 0.52671875 5.75 0.625 C5.75 1.285 5.75 1.945 5.75 2.625 C0.9750791 3.57998418 -3.40139376 3.86743031 -8.25 3.625 C-8.91 2.965 -9.57 2.305 -10.25 1.625 C-6.69181064 -0.63773207 -4.12452049 -0.44831744 0 0 Z " fill="#1D2126" transform="translate(168.25,68.375)"/>
<path d="M0 0 C0.33 0 0.66 0 1 0 C1 7.26 1 14.52 1 22 C-0.32 22 -1.64 22 -3 22 C-2.86722656 21.41734375 -2.73445313 20.8346875 -2.59765625 20.234375 C-1.14906124 13.50951058 -0.44789343 6.85984142 0 0 Z " fill="#212E31" transform="translate(313,412)"/>
<path d="M0 0 C-1 3 -1 3 -3.06640625 4.16796875 C-3.89011719 4.50441406 -4.71382812 4.84085937 -5.5625 5.1875 C-6.38878906 5.53167969 -7.21507813 5.87585938 -8.06640625 6.23046875 C-8.70449219 6.48441406 -9.34257813 6.73835938 -10 7 C-10.99 6.01 -11.98 5.02 -13 4 C-11.40233897 3.13372601 -9.79660056 2.28233535 -8.1875 1.4375 C-7.29417969 0.96183594 -6.40085937 0.48617188 -5.48046875 -0.00390625 C-3 -1 -3 -1 0 0 Z " fill="#1B1B1F" transform="translate(77,270)"/>
<path d="M0 0 C-2 2 -2 2 -5.125 2.125 C-6.07375 2.08375 -7.0225 2.0425 -8 2 C-8 4.31 -8 6.62 -8 9 C-8.99 8.67 -9.98 8.34 -11 8 C-11 5.69 -11 3.38 -11 1 C-6.87831311 -0.62950412 -4.29299643 -1.26264601 0 0 Z " fill="#E6E8E9" transform="translate(257,175)"/>
<path d="M0 0 C7.92 0.33 15.84 0.66 24 1 C24 1.33 24 1.66 24 2 C7.48275862 3.93103448 7.48275862 3.93103448 0 2 C0 1.34 0 0.68 0 0 Z " fill="#110708" transform="translate(174,297)"/>
<path d="M0 0 C-0.33 0.99 -0.66 1.98 -1 3 C-3.87109375 4.16796875 -3.87109375 4.16796875 -7.4375 5.1875 C-9.19900391 5.70376953 -9.19900391 5.70376953 -10.99609375 6.23046875 C-14 7 -14 7 -16 7 C-15.67 6.01 -15.34 5.02 -15 4 C-12.12890625 2.83203125 -12.12890625 2.83203125 -8.5625 1.8125 C-7.38816406 1.46832031 -6.21382812 1.12414062 -5.00390625 0.76953125 C-2 0 -2 0 0 0 Z " fill="#140E0F" transform="translate(223,291)"/>
<path d="M0 0 C1.890625 0.2578125 1.890625 0.2578125 4 1 C7.70714657 6.94803367 7.34004204 14.26213003 7 21 C6.67 21 6.34 21 6 21 C5.85304688 19.98292969 5.85304688 19.98292969 5.703125 18.9453125 C4.61724414 12.18664023 2.79064564 6.24508564 0 0 Z " fill="#E3E4E6" transform="translate(275,55)"/>
<path d="M0 0 C5.94 0.66 11.88 1.32 18 2 C18 2.33 18 2.66 18 3 C17.40832031 3.06058594 16.81664062 3.12117187 16.20703125 3.18359375 C15.02173828 3.30927734 15.02173828 3.30927734 13.8125 3.4375 C12.98878906 3.52386719 12.16507813 3.61023438 11.31640625 3.69921875 C8.90447297 3.95873993 8.90447297 3.95873993 6.25 4.75 C3.0758194 5.10268673 1.53115192 3.80796566 -1 2 C-0.67 1.34 -0.34 0.68 0 0 Z " fill="#27282A" transform="translate(144,185)"/>
<path d="M0 0 C0.93423645 3.01031744 1.04449911 3.86650268 0 7 C-0.12375 8.155 -0.2475 9.31 -0.375 10.5 C-0.98850915 13.93565126 -1.2754461 14.98619929 -4 17 C-5.49341969 14.01316063 -4.40648676 12.04839022 -3.5625 8.875 C-3.27503906 7.77929688 -2.98757813 6.68359375 -2.69140625 5.5546875 C-2.46324219 4.71164063 -2.23507812 3.86859375 -2 3 C-1.34 3 -0.68 3 0 3 C0 2.01 0 1.02 0 0 Z " fill="#E8EAEB" transform="translate(282,92)"/>
<path d="M0 0 C0.33 0 0.66 0 1 0 C0.03644647 11.52164009 0.03644647 11.52164009 -1 17 C-3.68803286 12.96795071 -3.56393431 9.73538953 -3 5 C-1.5625 1.9375 -1.5625 1.9375 0 0 Z " fill="#0A090B" transform="translate(155,243)"/>
<path d="M0 0 C6.75 2.75 6.75 2.75 9 5 C8.01 6.485 8.01 6.485 7 8 C6.484375 7.54625 5.96875 7.0925 5.4375 6.625 C2.42699426 4.61799617 -0.50927237 3.87268191 -4 3 C-2.68 2.01 -1.36 1.02 0 0 Z " fill="#1A1B1E" transform="translate(195,103)"/>
<path d="M0 0 C0.33 0 0.66 0 1 0 C1.85330338 5.83475015 2.48351814 10.44860651 0 16 C-0.33 16 -0.66 16 -1 16 C-2.0006709 10.03654233 -2.0662997 5.71271093 0 0 Z " fill="#1D1D20" transform="translate(398,363)"/>
<path d="M0 0 C-0.18359375 2.32421875 -0.18359375 2.32421875 -1 5 C-3.28515625 6.58203125 -3.28515625 6.58203125 -6.0625 7.8125 C-6.98160156 8.23144531 -7.90070313 8.65039062 -8.84765625 9.08203125 C-9.55792969 9.38496094 -10.26820313 9.68789063 -11 10 C-11.33 9.34 -11.66 8.68 -12 8 C-10.02 7.34 -8.04 6.68 -6 6 C-6 5.01 -6 4.02 -6 3 C-2.66666667 0 -2.66666667 0 0 0 Z " fill="#1A1B1D" transform="translate(231,268)"/>
<path d="M0 0 C0.33 0 0.66 0 1 0 C1.18451025 9.41002278 1.18451025 9.41002278 0 14 C-1.32 14.33 -2.64 14.66 -4 15 C-3.52229477 13.06213915 -3.04278429 11.12472326 -2.5625 9.1875 C-2.29566406 8.10855469 -2.02882813 7.02960938 -1.75390625 5.91796875 C-1.23922588 3.9259157 -0.65062825 1.95188476 0 0 Z " fill="#191B1D" transform="translate(276,137)"/>
<path d="M0 0 C2.13586678 3.20380017 2.23132175 4.01939967 2.125 7.6875 C2.10695313 8.49574219 2.08890625 9.30398438 2.0703125 10.13671875 C2.03550781 11.05904297 2.03550781 11.05904297 2 12 C0.68 12 -0.64 12 -2 12 C-1.85962479 10.18706911 -1.71255111 8.3746557 -1.5625 6.5625 C-1.48128906 5.55316406 -1.40007812 4.54382813 -1.31640625 3.50390625 C-1 1 -1 1 0 0 Z " fill="#1A1718" transform="translate(3,422)"/>
<path d="M0 0 C-3.00440021 2.00293347 -4.70993945 2.49271626 -8.1875 3.125 C-9.08855469 3.29257813 -9.98960937 3.46015625 -10.91796875 3.6328125 C-11.60503906 3.75398437 -12.29210937 3.87515625 -13 4 C-12.67 2.68 -12.34 1.36 -12 0 C-7.91556885 -1.53166168 -4.20544343 -0.63081652 0 0 Z " fill="#121113" transform="translate(139,249)"/>
<path d="M0 0 C4.71403788 0.47939368 8.66579301 0.96834048 13 3 C13 3.99 13 4.98 13 6 C6.46709917 5.3836886 6.46709917 5.3836886 4.25 3.5625 C3.8375 3.046875 3.425 2.53125 3 2 C2.01 1.34 1.02 0.68 0 0 Z " fill="#100E10" transform="translate(268,244)"/>
<path d="M0 0 C0.33 0 0.66 0 1 0 C1.33 4.62 1.66 9.24 2 14 C1.01 14.33 0.02 14.66 -1 15 C-2.18609365 9.3067505 -1.66251802 5.57432514 0 0 Z " fill="#1D1E22" transform="translate(106,160)"/>
<path d="M0 0 C0.66 0.66 1.32 1.32 2 2 C-2.29 2.66 -6.58 3.32 -11 4 C-10.67 2.68 -10.34 1.36 -10 0 C-6.25976024 -1.24674659 -3.83399823 -0.76679965 0 0 Z " fill="#0F1216" transform="translate(262,123)"/>
<path d="M0 0 C4.77576339 0.4682121 8.04476345 1.24331998 12 4 C9 6 9 6 5.4375 5.375 C2 4 2 4 0.5625 1.875 C0.376875 1.25625 0.19125 0.6375 0 0 Z " fill="#191C20" transform="translate(164,276)"/>
<path d="M0 0 C0.33 0.99 0.66 1.98 1 3 C1.66 3.33 2.32 3.66 3 4 C1.35 6.64 -0.3 9.28 -2 12 C-2.99 11.34 -3.98 10.68 -5 10 C-3.35 6.7 -1.7 3.4 0 0 Z " fill="#111316" transform="translate(142,134)"/>
<path d="M0 0 C0.33 0 0.66 0 1 0 C1.33 5.28 1.66 10.56 2 16 C1.01 16 0.02 16 -1 16 C-0.67 10.72 -0.34 5.44 0 0 Z " fill="#130B0E" transform="translate(55,418)"/>
<path d="M0 0 C4.82360189 -0.19294408 8.49646738 0.24252386 13 2 C9.60686626 4.0880823 6.95400991 4.50476722 3 4 C1.125 2 1.125 2 0 0 Z " fill="#111418" transform="translate(206,8)"/>
<path d="M0 0 C5.94 0 11.88 0 18 0 C15.37870105 2.62129895 13.77640978 2.47771304 10.125 2.8125 C8.55105469 2.97685547 8.55105469 2.97685547 6.9453125 3.14453125 C4 3 4 3 0 0 Z " fill="#ECEEEF" transform="translate(163,0)"/>
<path d="M0 0 C-0.34879632 3.25543229 -1.02133261 4.01873107 -3.5625 6.25 C-4.366875 6.8275 -5.17125 7.405 -6 8 C-6.66 7.01 -7.32 6.02 -8 5 C-3.375 0 -3.375 0 0 0 Z " fill="#1C1E20" transform="translate(218,203)"/>
<path d="M0 0 C0 0.99 0 1.98 0 3 C-4.62 3 -9.24 3 -14 3 C-13.67 2.34 -13.34 1.68 -13 1 C-11.07421875 0.5859375 -11.07421875 0.5859375 -8.6875 0.375 C-7.90761719 0.30023438 -7.12773437 0.22546875 -6.32421875 0.1484375 C-4.21985253 0.014041 -2.10865351 0 0 0 Z " fill="#040608" transform="translate(166,187)"/>
<path d="M0 0 C3.96 0 7.92 0 12 0 C12.33 0.99 12.66 1.98 13 3 C9.17022458 4.37871915 5.92010499 3.87113444 2 3 C1.34 2.01 0.68 1.02 0 0 Z " fill="#161B20" transform="translate(173,4)"/>
<path d="M0 0 C0.70125 0.12375 1.4025 0.2475 2.125 0.375 C-0.14186035 3.95425318 -1.98370857 4.89260327 -5.875 6.375 C-7.57794787 7.66167172 -9.25446188 8.98596733 -10.875 10.375 C-9.00554874 5.51442673 -5.30449457 0.6918906 0 0 Z " fill="#0A090C" transform="translate(49.875,285.625)"/>
<path d="M0 0 C0.53625 0.2475 1.0725 0.495 1.625 0.75 C-2.66790618 5.50286041 -2.66790618 5.50286041 -6.375 5.75 C-7.035 5.09 -7.695 4.43 -8.375 3.75 C-2.95961538 -0.31153846 -2.95961538 -0.31153846 0 0 Z " fill="#121114" transform="translate(65.375,275.25)"/>
<path d="M0 0 C1.41805831 0.28482368 2.83440379 0.57818144 4.25 0.875 C5.03890625 1.03742188 5.8278125 1.19984375 6.640625 1.3671875 C8.96831144 1.99150075 10.89031952 2.84838542 13 4 C13 4.99 13 5.98 13 7 C10.125 6.6875 10.125 6.6875 7 6 C6.34 5.01 5.68 4.02 5 3 C2.44816596 1.79549696 2.44816596 1.79549696 0 1 C0 0.67 0 0.34 0 0 Z " fill="#0F0E10" transform="translate(298,253)"/>
<path d="M0 0 C2.71369243 2.5327796 4.39355503 4.68670725 6 8 C7.3050581 9.68889872 8.63360658 11.3603279 10 13 C9.01 13 8.02 13 7 13 C2.88463867 8.88463867 1.24247504 5.64761381 0 0 Z " fill="#1F2024" transform="translate(119,201)"/>
<path d="M0 0 C0 3.99191204 -1.25498212 5.18079244 -4 8 C-6.75 8.8125 -6.75 8.8125 -9 9 C-8.07161713 7.68103535 -7.13194268 6.37001311 -6.1875 5.0625 C-5.66542969 4.33160156 -5.14335937 3.60070312 -4.60546875 2.84765625 C-3 1 -3 1 0 0 Z M-11 9 C-10.01 9.495 -10.01 9.495 -9 10 C-9.99 10.495 -9.99 10.495 -11 11 C-11 10.34 -11 9.68 -11 9 Z " fill="#ECEDED" transform="translate(273,161)"/>
<path d="M0 0 C0.33 0.99 0.66 1.98 1 3 C1.99 3.33 2.98 3.66 4 4 C3.67 4.66 3.34 5.32 3 6 C2.01 6 1.02 6 0 6 C-0.103125 6.639375 -0.20625 7.27875 -0.3125 7.9375 C-0.539375 8.618125 -0.76625 9.29875 -1 10 C-1.99 10.33 -2.98 10.66 -4 11 C-4 9.35 -4 7.7 -4 6 C-2.68 5.67 -1.36 5.34 0 5 C0 3.35 0 1.7 0 0 Z " fill="#21252B" transform="translate(105,100)"/>
<path d="M0 0 C-0.33 0.99 -0.66 1.98 -1 3 C-7.6 2.67 -14.2 2.34 -21 2 C-21 1.67 -21 1.34 -21 1 C-18.62515638 0.83079995 -16.25016522 0.66457137 -13.875 0.5 C-13.20984375 0.45230469 -12.5446875 0.40460938 -11.859375 0.35546875 C-7.89764586 0.08358538 -3.97061445 -0.04947806 0 0 Z " fill="#040304" transform="translate(204,280)"/>
<path d="M0 0 C2.24027294 2.88035092 4.16172132 5.84866512 6 9 C4.33333333 9 2.66666667 9 1 9 C-0.61949011 6.42786866 -1.04408751 5.32330841 -0.625 2.25 C-0.41875 1.5075 -0.2125 0.765 0 0 Z " fill="#1A1D21" transform="translate(96,137)"/>
<path d="M0 0 C1.32 0.66 2.64 1.32 4 2 C2.68 2.33 1.36 2.66 0 3 C-0.33 4.32 -0.66 5.64 -1 7 C-1.66 7 -2.32 7 -3 7 C-3.33 7.66 -3.66 8.32 -4 9 C-3.6875 5.625 -3.6875 5.625 -3 2 C-2.01 1.34 -1.02 0.68 0 0 Z " fill="#282B2F" transform="translate(186,123)"/>
<path d="M0 0 C3.875 2.625 3.875 2.625 5 6 C5.6599679 7.66933058 6.32558869 9.3364521 7 11 C6.01 11.495 6.01 11.495 5 12 C4.15556432 10.75747321 3.3248542 9.5056114 2.5 8.25 C1.80390625 7.20585937 1.80390625 7.20585937 1.09375 6.140625 C0 4 0 4 0 0 Z " fill="#1D1E21" transform="translate(373,298)"/>
<path d="M0 0 C0.33 0 0.66 0 1 0 C1.38991022 1.93455454 1.76145349 3.87281828 2.125 5.8125 C2.33382812 6.89144531 2.54265625 7.97039062 2.7578125 9.08203125 C3 12 3 12 1 15 C0.01 14.67 -0.98 14.34 -2 14 C-1.67 13.01 -1.34 12.02 -1 11 C-0.77820215 9.10787263 -0.59385985 7.21115528 -0.4375 5.3125 C-0.35371094 4.31863281 -0.26992187 3.32476562 -0.18359375 2.30078125 C-0.12300781 1.54152344 -0.06242188 0.78226562 0 0 Z " fill="#323439" transform="translate(211,126)"/>
<path d="M0 0 C0.66 0 1.32 0 2 0 C0.87548273 2.9719385 -0.22293791 5.33440687 -2 8 C-3.875 7.6875 -3.875 7.6875 -6 7 C-6.66 6.01 -7.32 5.02 -8 4 C-6.02 4 -4.04 4 -2 4 C-1.34 2.68 -0.68 1.36 0 0 Z " fill="#1C2128" transform="translate(269,118)"/>
<path d="M0 0 C6.93478261 6.69565217 6.93478261 6.69565217 7.1875 11.75 C7.125625 12.8225 7.06375 13.895 7 15 C6.67 15 6.34 15 6 15 C5.71125 13.9275 5.4225 12.855 5.125 11.75 C3.94370381 7.68670746 3.94370381 7.68670746 2 4 C1.01 3.67 0.02 3.34 -1 3 C-0.67 2.01 -0.34 1.02 0 0 Z " fill="#EAECEC" transform="translate(97,90)"/>
<path d="M0 0 C1.98 0.99 1.98 0.99 4 2 C4 4.31 4 6.62 4 9 C2.68 8.67 1.36 8.34 0 8 C0 5.36 0 2.72 0 0 Z " fill="#212A2F" transform="translate(59,354)"/>
<path d="M0 0 C0.66 0.33 1.32 0.66 2 1 C1.25 7.75 1.25 7.75 -1 10 C-2.23076923 4.58461538 -2.23076923 4.58461538 -1.0625 1.625 C-0.5365625 0.820625 -0.5365625 0.820625 0 0 Z " fill="#0F0B0D" transform="translate(23,326)"/>
<path d="M0 0 C0.99 0.33 1.98 0.66 3 1 C1.25 5.875 1.25 5.875 -1 7 C-1.66 7.99 -2.32 8.98 -3 10 C-3.36923077 4.58461538 -3.36923077 4.58461538 -1.5 1.625 C-1.005 1.08875 -0.51 0.5525 0 0 Z " fill="#1D2127" transform="translate(247,127)"/>
<path d="M0 0 C1.21236328 0.02707031 1.21236328 0.02707031 2.44921875 0.0546875 C3.37154297 0.08949219 3.37154297 0.08949219 4.3125 0.125 C4.6425 1.115 4.9725 2.105 5.3125 3.125 C1.0225 2.795 -3.2675 2.465 -7.6875 2.125 C-4.48369983 -0.01086678 -3.66810033 -0.10632175 0 0 Z " fill="#EEEFF0" transform="translate(192.6875,2.875)"/>
<path d="M0 0 C0.99 0.33 1.98 0.66 3 1 C-2.0940919 6.88183807 -2.0940919 6.88183807 -5.875 7.375 C-6.57625 7.25125 -7.2775 7.1275 -8 7 C-5.4542872 4.4542872 -2.87517597 2.17105124 0 0 Z " fill="#25272B" transform="translate(45,290)"/>
<path d="M0 0 C0.33 0.66 0.66 1.32 1 2 C-0.65 4.31 -2.3 6.62 -4 9 C-4.99 8.67 -5.98 8.34 -7 8 C-6.21366078 6.85050412 -5.42073742 5.70551011 -4.625 4.5625 C-4.18414062 3.92441406 -3.74328125 3.28632813 -3.2890625 2.62890625 C-2 1 -2 1 0 0 Z " fill="#130C0D" transform="translate(252,268)"/>
<path d="M0 0 C0.495 0.391875 0.99 0.78375 1.5 1.1875 C-1.1264883 2.5945473 -3.52531947 3.81566493 -6.5 4.1875 C-8.75 3.25 -8.75 3.25 -10.5 2.1875 C-3.28774617 -1.06851751 -3.28774617 -1.06851751 0 0 Z " fill="#191E22" transform="translate(100.5,259.8125)"/>
<path d="M0 0 C2.64 0.66 5.28 1.32 8 2 C6.3125 3.5625 6.3125 3.5625 4 5 C1.25 4.6875 1.25 4.6875 -1 4 C-0.67 2.68 -0.34 1.36 0 0 Z " fill="#1D2023" transform="translate(281,247)"/>
<path d="M0 0 C0.99 0 1.98 0 3 0 C2.67 1.98 2.34 3.96 2 6 C1.01 6.33 0.02 6.66 -1 7 C-1.99 6.34 -2.98 5.68 -4 5 C-2.68 4.67 -1.36 4.34 0 4 C0 2.68 0 1.36 0 0 Z " fill="#EAECED" transform="translate(151,236)"/>
<path d="M0 0 C6.625 -0.25 6.625 -0.25 10 2 C7.04335481 3.4783226 4.25770263 3.06032783 1 3 C0.67 2.01 0.34 1.02 0 0 Z " fill="#050708" transform="translate(185,102)"/>
<path d="M0 0 C3.48670834 1.1094072 6.77484237 2.26337666 10 4 C10 4.66 10 5.32 10 6 C8.1875 6.6875 8.1875 6.6875 6 7 C4.4375 5.75 4.4375 5.75 3 4 C2.443125 3.46375 1.88625 2.9275 1.3125 2.375 C0 1 0 1 0 0 Z " fill="#1C2027" transform="translate(134,60)"/>
<path d="M0 0 C0.89203125 0.00902344 1.7840625 0.01804688 2.703125 0.02734375 C3.37859375 0.03894531 4.0540625 0.05054688 4.75 0.0625 C0.66687086 2.29631953 -2.61892261 2.76372081 -7.25 3.0625 C-7.91 2.4025 -8.57 1.7425 -9.25 1.0625 C-6.09493858 0.12630187 -3.28413498 -0.0432123 0 0 Z " fill="#111519" transform="translate(167.25,2.9375)"/>
<path d="M0 0 C0.33 0.66 0.66 1.32 1 2 C0.195625 2.45375 -0.60875 2.9075 -1.4375 3.375 C-4.08856572 4.74725665 -4.08856572 4.74725665 -5 7 C-6.65 6.67 -8.3 6.34 -10 6 C-8.64695791 3.29391583 -7.19033456 3.03816953 -4.4375 1.875 C-3.61121094 1.52179688 -2.78492188 1.16859375 -1.93359375 0.8046875 C-1.29550781 0.53914063 -0.65742188 0.27359375 0 0 Z " fill="#09090A" transform="translate(224,272)"/>
<path d="M0 0 C6.625 -0.25 6.625 -0.25 10 2 C7.36 2 4.72 2 2 2 C3.65 2.33 5.3 2.66 7 3 C7 3.33 7 3.66 7 4 C4.69 4.33 2.38 4.66 0 5 C0 3.35 0 1.7 0 0 Z " fill="#35373C" transform="translate(245,171)"/>
<path d="M0 0 C0.66 1.32 1.32 2.64 2 4 C1.525625 4.433125 1.05125 4.86625 0.5625 5.3125 C-1.23686957 7.02309613 -1.23686957 7.02309613 -2 10 C-2.66 10 -3.32 10 -4 10 C-3.52449439 8.51965236 -3.04448784 7.04074979 -2.5625 5.5625 C-2.29566406 4.73878906 -2.02882813 3.91507813 -1.75390625 3.06640625 C-1 1 -1 1 0 0 Z " fill="#121518" transform="translate(93,44)"/>
<path d="M0 0 C0.99 0.99 1.98 1.98 3 3 C2.34 4.65 1.68 6.3 1 8 C0.34 8 -0.32 8 -1 8 C-1.93065133 5.39417629 -2.14917407 4.35801776 -1.0625 1.75 C-0.711875 1.1725 -0.36125 0.595 0 0 Z " fill="#1E2022" transform="translate(30,307)"/>
<path d="M0 0 C0.33 0.66 0.66 1.32 1 2 C3.3140622 2.73075648 5.64828869 3.40138258 8 4 C7.67 4.66 7.34 5.32 7 6 C5.68428397 5.7452486 4.37239624 5.47065859 3.0625 5.1875 C2.33160156 5.03667969 1.60070312 4.88585937 0.84765625 4.73046875 C0.23792969 4.48941406 -0.37179687 4.24835938 -1 4 C-1.33 3.01 -1.66 2.02 -2 1 C-1.34 0.67 -0.68 0.34 0 0 Z " fill="#1D1D21" transform="translate(297,252)"/>
<path d="M0 0 C6.0546875 -0.1953125 6.0546875 -0.1953125 8 0 C8.66 0.66 9.32 1.32 10 2 C8.54536519 2.38909985 7.08608793 2.76088029 5.625 3.125 C4.40683594 3.43824219 4.40683594 3.43824219 3.1640625 3.7578125 C2.44992188 3.83773437 1.73578125 3.91765625 1 4 C0.34 3.34 -0.32 2.68 -1 2 C-0.67 1.34 -0.34 0.68 0 0 Z " fill="#1E2225" transform="translate(141,245)"/>
<path d="M0 0 C0.99 0.33 1.98 0.66 3 1 C1.25 4.875 1.25 4.875 -1 6 C-1.99 5.34 -2.98 4.68 -4 4 C-2.68 2.68 -1.36 1.36 0 0 Z " fill="#1F2326" transform="translate(169,108)"/>
<path d="M0 0 C0 0.99 0 1.98 0 3 C-2.375 4.75 -2.375 4.75 -5 6 C-5.66 5.67 -6.32 5.34 -7 5 C-6 2 -6 2 -4.0625 0.8125 C-2 0 -2 0 0 0 Z " fill="#090A0D" transform="translate(178,104)"/>
<path d="M0 0 C1.98 0.99 3.96 1.98 6 3 C5.01 4.485 5.01 4.485 4 6 C2.02 5.01 0.04 4.02 -2 3 C-1.34 2.01 -0.68 1.02 0 0 Z " fill="#101114" transform="translate(129,102)"/>
<path d="M0 0 C5.75 0.875 5.75 0.875 8 2 C8 2.66 8 3.32 8 4 C5.125 4.125 5.125 4.125 2 4 C1.34 3.34 0.68 2.68 0 2 C0 1.34 0 0.68 0 0 Z " fill="#0F1317" transform="translate(220,11)"/>
<path d="M0 0 C2.31 0 4.62 0 7 0 C7 0.99 7 1.98 7 3 C4.69 3 2.38 3 0 3 C0 2.01 0 1.02 0 0 Z " fill="#101318" transform="translate(198,7)"/>
<path d="M0 0 C0.94875 0.350625 1.8975 0.70125 2.875 1.0625 C2.545 2.0525 2.215 3.0425 1.875 4.0625 C-0.14545442 3.46066251 -2.14611039 2.78943904 -4.125 2.0625 C-4.455 1.4025 -4.785 0.7425 -5.125 0.0625 C-3.125 -0.9375 -3.125 -0.9375 0 0 Z " fill="#0E0B0D" transform="translate(339.125,268.9375)"/>
<path d="M0 0 C2.31 0 4.62 0 7 0 C4.3144406 2.6855594 1.62378672 3.06049974 -2 4 C-2.66 3.34 -3.32 2.68 -4 2 C-2.68 2 -1.36 2 0 2 C0 1.34 0 0.68 0 0 Z " fill="#EDEEEE" transform="translate(96,257)"/>
<path d="M0 0 C0.33 0.66 0.66 1.32 1 2 C4.02934491 2.65772428 4.02934491 2.65772428 7 3 C5.25 4.125 5.25 4.125 3 5 C0.33024478 4.05773345 -0.98615798 3.01384202 -3 1 C-2.01 0.67 -1.02 0.34 0 0 Z " fill="#1B1D21" transform="translate(257,240)"/>
<path d="M0 0 C1.98 0.66 3.96 1.32 6 2 C6 2.33 6 2.66 6 3 C-0.625 4.25 -0.625 4.25 -4 2 C-2.68 2 -1.36 2 0 2 C0 1.34 0 0.68 0 0 Z " fill="#1C1A1C" transform="translate(204,279)"/>
<path d="M0 0 C0.66 0.66 1.32 1.32 2 2 C1.34 3.65 0.68 5.3 0 7 C-0.99 6.34 -1.98 5.68 -3 5 C-1.125 1.125 -1.125 1.125 0 0 Z " fill="#1E1D20" transform="translate(247,246)"/>
<path d="M0 0 C2.64 0.33 5.28 0.66 8 1 C5 3 5 3 1.8125 2.625 C0.884375 2.41875 -0.04375 2.2125 -1 2 C-0.67 1.34 -0.34 0.68 0 0 Z " fill="#07080A" transform="translate(146,223)"/>
<path d="M0 0 C2 4 2 4 2 8 C0.02 8.99 0.02 8.99 -2 10 C-1.34 6.7 -0.68 3.4 0 0 Z " fill="#E1E4E4" transform="translate(276,146)"/>
<path d="M0 0 C0.97687451 3.03916514 1.105817 4.98413546 0 8 C-0.66 8.66 -1.32 9.32 -2 10 C-2.17942163 6.05272412 -2.09350689 3.4019487 0 0 Z " fill="#0C0E11" transform="translate(226,64)"/>
<path d="M0 0 C0.99 0.33 1.98 0.66 3 1 C3.33 2.65 3.66 4.3 4 6 C2.68 6 1.36 6 0 6 C-1.125 2.25 -1.125 2.25 0 0 Z " fill="#222023" transform="translate(389,331)"/>
<path d="M0 0 C2.125 0.375 2.125 0.375 4 1 C2.68 2.32 1.36 3.64 0 5 C-0.66 4.01 -1.32 3.02 -2 2 C-1.34 1.34 -0.68 0.68 0 0 Z " fill="#222427" transform="translate(136,145)"/>
<path d="M0 0 C1.76462683 3.08809695 2 4.23312136 2 8 C1.01 8 0.02 8 -1 8 C-0.67 5.36 -0.34 2.72 0 0 Z " fill="#050709" transform="translate(149,124)"/>
<path d="M0 0 C1.65 1.65 3.3 3.3 5 5 C4.34 6.32 3.68 7.64 3 9 C0 3.375 0 3.375 0 0 Z " fill="#0B0D10" transform="translate(229,111)"/>
<path d="M0 0 C0.66 0 1.32 0 2 0 C2 1.65 2 3.3 2 5 C1.34 5 0.68 5 0 5 C-0.66 5.66 -1.32 6.32 -2 7 C-2.33 6.34 -2.66 5.68 -3 5 C-1.6875 2.375 -1.6875 2.375 0 0 Z " fill="#1B2227" transform="translate(116,58)"/>
<path d="M0 0 C1.32 0.66 2.64 1.32 4 2 C2 4 2 4 -0.625 4.125 C-1.40875 4.08375 -2.1925 4.0425 -3 4 C-2.01 2.68 -1.02 1.36 0 0 Z " fill="#0F1318" transform="translate(98,38)"/>
</svg>
